<?xml version="1.0" encoding="utf-8"?>
<svg id="master-artboard" viewBox="0 0 1615.4091796875 943.7468872070312" version="1.1" xmlns="http://www.w3.org/2000/svg" x="0px" y="0px" style="enable-background:new 0 0 850.4 1133.9;" width="1615.4091796875px" height="943.7468872070312px"><rect id="ee-background" x="0" y="0" width="1615.4091796875" height="943.7468872070312" style="fill: rgb(51, 42, 82); fill-opacity: 1; pointer-events: none;"/><g transform="matrix(2.920555591583252, 0, 0, 2.920555591583252, 73.64871215820312, -1582.8138732910156)"><path d="M 239 626.2000122070312 L 250.60000610351562 662 L 288.20001220703125 662 L 257.79998779296875 684.0999755859375 L 269.3999938964844 719.9000244140625 L 239 697.7999877929688 L 208.60000610351562 719.9000244140625 L 220.1999969482422 684.0999755859375 L 189.8000030517578 662 L 227.39999389648438 662 Z" class="st0" style="fill: rgb(225, 182, 242); fill-opacity: 0.25;" transform="matrix(0.11400236947375773, 0, 0, 0.11400236947375773, 104.97977624209511, 539.6283356991534)"/></g><path d="M 239 626.2000122070312 L 250.60000610351562 662 L 288.20001220703125 662 L 257.79998779296875 684.0999755859375 L 269.3999938964844 719.9000244140625 L 239 697.7999877929688 L 208.60000610351562 719.9000244140625 L 220.1999969482422 684.0999755859375 L 189.8000030517578 662 L 227.39999389648438 662 Z" class="st0" style="fill: rgb(225, 182, 242); fill-opacity: 0.25;" transform="matrix(0.2882693111896515, 0, 0, 0.2882693111896515, 554.6567077636719, 121.74645233154297)"/><path d="M 239 626.2000122070312 L 250.60000610351562 662 L 288.20001220703125 662 L 257.79998779296875 684.0999755859375 L 269.3999938964844 719.9000244140625 L 239 697.7999877929688 L 208.60000610351562 719.9000244140625 L 220.1999969482422 684.0999755859375 L 189.8000030517578 662 L 227.39999389648438 662 Z" class="st0" style="fill: rgb(225, 182, 242); fill-opacity: 0.25;" transform="matrix(0.17656707763671875, 0, 0, 0.17656707763671875, 736.3338928222656, 391.739990234375)"/><path d="M 239 626.2000122070312 L 250.60000610351562 662 L 288.20001220703125 662 L 257.79998779296875 684.0999755859375 L 269.3999938964844 719.9000244140625 L 239 697.7999877929688 L 208.60000610351562 719.9000244140625 L 220.1999969482422 684.0999755859375 L 189.8000030517578 662 L 227.39999389648438 662 Z" class="st0" style="fill: rgb(225, 182, 242); fill-opacity: 0.25;" transform="matrix(0.377631276845932, 0, 0, 0.377631276845932, 1401.6285705566406, -116.67101287841797)"/><path d="M 239 626.2000122070312 L 250.60000610351562 662 L 288.20001220703125 662 L 257.79998779296875 684.0999755859375 L 269.3999938964844 719.9000244140625 L 239 697.7999877929688 L 208.60000610351562 719.9000244140625 L 220.1999969482422 684.0999755859375 L 189.8000030517578 662 L 227.39999389648438 662 Z" class="st0" style="fill: rgb(225, 182, 242); fill-opacity: 0.25;" transform="matrix(0.2882692813873291, 0, 0, 0.2882692813873291, 974.5325012207031, 471.27655029296875)"/><path d="M 239 626.2000122070312 L 250.60000610351562 662 L 288.20001220703125 662 L 257.79998779296875 684.0999755859375 L 269.3999938964844 719.9000244140625 L 239 697.7999877929688 L 208.60000610351562 719.9000244140625 L 220.1999969482422 684.0999755859375 L 189.8000030517578 662 L 227.39999389648438 662 Z" class="st0" style="fill: rgb(225, 182, 242); fill-opacity: 0.25;" transform="matrix(0.2882692813873291, 0, 0, 0.2882692813873291, 374.3959045410156, 535.0273132324219)"/><path d="M 239 626.2000122070312 L 250.60000610351562 662 L 288.20001220703125 662 L 257.79998779296875 684.0999755859375 L 269.3999938964844 719.9000244140625 L 239 697.7999877929688 L 208.60000610351562 719.9000244140625 L 220.1999969482422 684.0999755859375 L 189.8000030517578 662 L 227.39999389648438 662 Z" class="st0" style="fill: rgb(225, 182, 242); fill-opacity: 0.25;" transform="matrix(0.2882692813873291, 0, 0, 0.2882692813873291, 1286.6914367675781, 0.037197113037109375)"/><path d="M 239 626.2000122070312 L 250.60000610351562 662 L 288.20001220703125 662 L 257.79998779296875 684.0999755859375 L 269.3999938964844 719.9000244140625 L 239 697.7999877929688 L 208.60000610351562 719.9000244140625 L 220.1999969482422 684.0999755859375 L 189.8000030517578 662 L 227.39999389648438 662 Z" class="st0" style="fill: rgb(225, 182, 242); fill-opacity: 0.25;" transform="matrix(0.17656712234020233, 0, 0, 0.17656712234020233, 1118.8385314941406, 709.6911926269531)"/><path d="M 239 626.2000122070312 L 250.60000610351562 662 L 288.20001220703125 662 L 257.79998779296875 684.0999755859375 L 269.3999938964844 719.9000244140625 L 239 697.7999877929688 L 208.60000610351562 719.9000244140625 L 220.1999969482422 684.0999755859375 L 189.8000030517578 662 L 227.39999389648438 662 Z" class="st0" style="fill: rgb(225, 182, 242); fill-opacity: 0.25;" transform="matrix(0.3776313364505768, 0, 0, 0.3776313364505768, 1417.0167541503906, 379.3426818847656)"/><g transform="matrix(2.920555591583252, 0, 0, 2.920555591583252, 588.0515441894531, -1486.8911437988281)"><path d="M 239 626.2000122070312 L 250.60000610351562 662 L 288.20001220703125 662 L 257.79998779296875 684.0999755859375 L 269.3999938964844 719.9000244140625 L 239 697.7999877929688 L 208.60000610351562 719.9000244140625 L 220.1999969482422 684.0999755859375 L 189.8000030517578 662 L 227.39999389648438 662 Z" class="st0" style="fill: rgb(225, 182, 242); fill-opacity: 0.25;" transform="matrix(0.11400236947375773, 0, 0, 0.11400236947375773, 104.97977624209511, 539.6283356991534)"/></g><path d="M 239 626.2000122070312 L 250.60000610351562 662 L 288.20001220703125 662 L 257.79998779296875 684.0999755859375 L 269.3999938964844 719.9000244140625 L 239 697.7999877929688 L 208.60000610351562 719.9000244140625 L 220.1999969482422 684.0999755859375 L 189.8000030517578 662 L 227.39999389648438 662 Z" class="st0" style="fill: rgb(225, 182, 242); fill-opacity: 0.25;" transform="matrix(0.2882692813873291, 0, 0, 0.2882692813873291, 227.10971069335938, -85.69660949707031)"/><path d="M 239 626.2000122070312 L 250.60000610351562 662 L 288.20001220703125 662 L 257.79998779296875 684.0999755859375 L 269.3999938964844 719.9000244140625 L 239 697.7999877929688 L 208.60000610351562 719.9000244140625 L 220.1999969482422 684.0999755859375 L 189.8000030517578 662 L 227.39999389648438 662 Z" class="st0" style="fill: rgb(225, 182, 242); fill-opacity: 0.25;" transform="matrix(0.17656712234020233, 0, 0, 0.17656712234020233, 1250.7366027832031, 487.66265869140625)"/><path d="M 239 626.2000122070312 L 250.60000610351562 662 L 288.20001220703125 662 L 257.79998779296875 684.0999755859375 L 269.3999938964844 719.9000244140625 L 239 697.7999877929688 L 208.60000610351562 719.9000244140625 L 220.1999969482422 684.0999755859375 L 189.8000030517578 662 L 227.39999389648438 662 Z" class="st0" style="fill: rgb(225, 182, 242); fill-opacity: 0.25;" transform="matrix(0.2882692813873291, 0, 0, 0.2882692813873291, 1488.9352111816406, 567.1992492675781)"/><path d="M 239 626.2000122070312 L 250.60000610351562 662 L 288.20001220703125 662 L 257.79998779296875 684.0999755859375 L 269.3999938964844 719.9000244140625 L 239 697.7999877929688 L 208.60000610351562 719.9000244140625 L 220.1999969482422 684.0999755859375 L 189.8000030517578 662 L 227.39999389648438 662 Z" class="st0" style="fill: rgb(225, 182, 242); fill-opacity: 0.25;" transform="matrix(0.2882692813873291, 0, 0, 0.2882692813873291, 888.7987365722656, 630.9499816894531)"/><g transform="matrix(2.920555591583252, 0, 0, 2.920555591583252, -258.2948303222656, -1581.4182434082031)"><path d="M 239 626.2000122070312 L 250.60000610351562 662 L 288.20001220703125 662 L 257.79998779296875 684.0999755859375 L 269.3999938964844 719.9000244140625 L 239 697.7999877929688 L 208.60000610351562 719.9000244140625 L 220.1999969482422 684.0999755859375 L 189.8000030517578 662 L 227.39999389648438 662 Z" class="st0" style="fill: rgb(225, 182, 242); fill-opacity: 0.25;" transform="matrix(0.11400236947375773, 0, 0, 0.11400236947375773, 104.97977624209511, 539.6283356991534)"/></g><path d="M 239 626.2000122070312 L 250.60000610351562 662 L 288.20001220703125 662 L 257.79998779296875 684.0999755859375 L 269.3999938964844 719.9000244140625 L 239 697.7999877929688 L 208.60000610351562 719.9000244140625 L 220.1999969482422 684.0999755859375 L 189.8000030517578 662 L 227.39999389648438 662 Z" class="st0" style="fill: rgb(225, 182, 242); fill-opacity: 0.25;" transform="matrix(0.2882692813873291, 0, 0, 0.2882692813873291, 222.7130889892578, 123.14212799072266)"/><path d="M 239 626.2000122070312 L 250.60000610351562 662 L 288.20001220703125 662 L 257.79998779296875 684.0999755859375 L 269.3999938964844 719.9000244140625 L 239 697.7999877929688 L 208.60000610351562 719.9000244140625 L 220.1999969482422 684.0999755859375 L 189.8000030517578 662 L 227.39999389648438 662 Z" class="st0" style="fill: rgb(225, 182, 242); fill-opacity: 0.25;" transform="matrix(0.17656712234020233, 0, 0, 0.17656712234020233, 404.3902893066406, 393.1356506347656)"/><path d="M 239 626.2000122070312 L 250.60000610351562 662 L 288.20001220703125 662 L 257.79998779296875 684.0999755859375 L 269.3999938964844 719.9000244140625 L 239 697.7999877929688 L 208.60000610351562 719.9000244140625 L 220.1999969482422 684.0999755859375 L 189.8000030517578 662 L 227.39999389648438 662 Z" class="st0" style="fill: rgb(225, 182, 242); fill-opacity: 0.25;" transform="matrix(0.37763136625289917, 0, 0, 0.37763136625289917, 1260.9372863769531, 531.0255432128906)"/><path d="M 239 626.2000122070312 L 250.60000610351562 662 L 288.20001220703125 662 L 257.79998779296875 684.0999755859375 L 269.3999938964844 719.9000244140625 L 239 697.7999877929688 L 208.60000610351562 719.9000244140625 L 220.1999969482422 684.0999755859375 L 189.8000030517578 662 L 227.39999389648438 662 Z" class="st0" style="fill: rgb(225, 182, 242); fill-opacity: 0.25;" transform="matrix(0.2882692813873291, 0, 0, 0.2882692813873291, 642.5888977050781, 472.6722106933594)"/><path d="M 239 626.2000122070312 L 250.60000610351562 662 L 288.20001220703125 662 L 257.79998779296875 684.0999755859375 L 269.3999938964844 719.9000244140625 L 239 697.7999877929688 L 208.60000610351562 719.9000244140625 L 220.1999969482422 684.0999755859375 L 189.8000030517578 662 L 227.39999389648438 662 Z" class="st0" style="fill: rgb(225, 182, 242); fill-opacity: 0.25;" transform="matrix(0.2882692813873291, 0, 0, 0.2882692813873291, 42.45231628417969, 536.4230041503906)"/><path d="M 239 626.2000122070312 L 250.60000610351562 662 L 288.20001220703125 662 L 257.79998779296875 684.0999755859375 L 269.3999938964844 719.9000244140625 L 239 697.7999877929688 L 208.60000610351562 719.9000244140625 L 220.1999969482422 684.0999755859375 L 189.8000030517578 662 L 227.39999389648438 662 Z" class="st0" style="fill: rgb(225, 182, 242); fill-opacity: 0.25;" transform="matrix(0.2882692813873291, 0, 0, 0.2882692813873291, 539.2685852050781, -153.84397888183594)"/><path d="M 239 626.2000122070312 L 250.60000610351562 662 L 288.20001220703125 662 L 257.79998779296875 684.0999755859375 L 269.3999938964844 719.9000244140625 L 239 697.7999877929688 L 208.60000610351562 719.9000244140625 L 220.1999969482422 684.0999755859375 L 189.8000030517578 662 L 227.39999389648438 662 Z" class="st0" style="fill: rgb(225, 182, 242); fill-opacity: 0.25;" transform="matrix(0.17656712234020233, 0, 0, 0.17656712234020233, 720.9458312988281, 116.14956665039062)"/><path d="M 239 626.2000122070312 L 250.60000610351562 662 L 288.20001220703125 662 L 257.79998779296875 684.0999755859375 L 269.3999938964844 719.9000244140625 L 239 697.7999877929688 L 208.60000610351562 719.9000244140625 L 220.1999969482422 684.0999755859375 L 189.8000030517578 662 L 227.39999389648438 662 Z" class="st0" style="fill: rgb(225, 182, 242); fill-opacity: 0.25;" transform="matrix(0.3776313364505768, 0, 0, 0.3776313364505768, 1019.1241149902344, -214.19894409179688)"/><path d="M 239 626.2000122070312 L 250.60000610351562 662 L 288.20001220703125 662 L 257.79998779296875 684.0999755859375 L 269.3999938964844 719.9000244140625 L 239 697.7999877929688 L 208.60000610351562 719.9000244140625 L 220.1999969482422 684.0999755859375 L 189.8000030517578 662 L 227.39999389648438 662 Z" class="st0" style="fill: rgb(225, 182, 242); fill-opacity: 0.25;" transform="matrix(0.2882692813873291, 0, 0, 0.2882692813873291, 959.1444396972656, 195.68612670898438)"/><path d="M 239 626.2000122070312 L 250.60000610351562 662 L 288.20001220703125 662 L 257.79998779296875 684.0999755859375 L 269.3999938964844 719.9000244140625 L 239 697.7999877929688 L 208.60000610351562 719.9000244140625 L 220.1999969482422 684.0999755859375 L 189.8000030517578 662 L 227.39999389648438 662 Z" class="st0" style="fill: rgb(225, 182, 242); fill-opacity: 0.25;" transform="matrix(0.14864134661701536, 0, 0, 0.14864134661701536, 385.5092254630943, 346.8719041060505)"/><g transform="matrix(2.920555591583252, 0, 0, 2.920555591583252, 590.2497863769531, -1706.7214660644531)"><path d="M 239 626.2000122070312 L 250.60000610351562 662 L 288.20001220703125 662 L 257.79998779296875 684.0999755859375 L 269.3999938964844 719.9000244140625 L 239 697.7999877929688 L 208.60000610351562 719.9000244140625 L 220.1999969482422 684.0999755859375 L 189.8000030517578 662 L 227.39999389648438 662 Z" class="st0" style="fill: rgb(225, 182, 242); fill-opacity: 0.25;" transform="matrix(0.11400236947375773, 0, 0, 0.11400236947375773, 104.97977624209511, 539.6283356991534)"/></g><path d="M 239 626.2000122070312 L 250.60000610351562 662 L 288.20001220703125 662 L 257.79998779296875 684.0999755859375 L 269.3999938964844 719.9000244140625 L 239 697.7999877929688 L 208.60000610351562 719.9000244140625 L 220.1999969482422 684.0999755859375 L 189.8000030517578 662 L 227.39999389648438 662 Z" class="st0" style="fill: rgb(225, 182, 242); fill-opacity: 0.25;" transform="matrix(0.2882692813873291, 0, 0, 0.2882692813873291, 1071.2578430175781, -2.161113739013672)"/><path d="M 239 626.2000122070312 L 250.60000610351562 662 L 288.20001220703125 662 L 257.79998779296875 684.0999755859375 L 269.3999938964844 719.9000244140625 L 239 697.7999877929688 L 208.60000610351562 719.9000244140625 L 220.1999969482422 684.0999755859375 L 189.8000030517578 662 L 227.39999389648438 662 Z" class="st0" style="fill: rgb(225, 182, 242); fill-opacity: 0.25;" transform="matrix(0.17656713724136353, 0, 0, 0.17656713724136353, 1283.7112121582031, 267.8324279785156)"/><path d="M 239 626.2000122070312 L 250.60000610351562 662 L 288.20001220703125 662 L 257.79998779296875 684.0999755859375 L 269.3999938964844 719.9000244140625 L 239 697.7999877929688 L 208.60000610351562 719.9000244140625 L 220.1999969482422 684.0999755859375 L 189.8000030517578 662 L 227.39999389648438 662 Z" class="st0" style="fill: rgb(225, 182, 242); fill-opacity: 0.25;" transform="matrix(0.2882692813873291, 0, 0, 0.2882692813873291, 1491.1335754394531, 347.3689880371094)"/><path d="M 239 626.2000122070312 L 250.60000610351562 662 L 288.20001220703125 662 L 257.79998779296875 684.0999755859375 L 269.3999938964844 719.9000244140625 L 239 697.7999877929688 L 208.60000610351562 719.9000244140625 L 220.1999969482422 684.0999755859375 L 189.8000030517578 662 L 227.39999389648438 662 Z" class="st0" style="fill: rgb(225, 182, 242); fill-opacity: 0.25;" transform="matrix(0.2882692813873291, 0, 0, 0.2882692813873291, 890.9970397949219, 411.1197509765625)"/><g transform="matrix(2.920555591583252, 0, 0, 2.920555591583252, 84.64028930664062, -1511.0725402832031)"><path d="M 239 626.2000122070312 L 250.60000610351562 662 L 288.20001220703125 662 L 257.79998779296875 684.0999755859375 L 269.3999938964844 719.9000244140625 L 239 697.7999877929688 L 208.60000610351562 719.9000244140625 L 220.1999969482422 684.0999755859375 L 189.8000030517578 662 L 227.39999389648438 662 Z" class="st0" style="fill: rgb(225, 182, 242); fill-opacity: 0.25;" transform="matrix(0.11400236947375773, 0, 0, 0.11400236947375773, 104.97977624209511, 539.6283356991534)"/></g><path d="M 239 626.2000122070312 L 250.60000610351562 662 L 288.20001220703125 662 L 257.79998779296875 684.0999755859375 L 269.3999938964844 719.9000244140625 L 239 697.7999877929688 L 208.60000610351562 719.9000244140625 L 220.1999969482422 684.0999755859375 L 189.8000030517578 662 L 227.39999389648438 662 Z" class="st0" style="fill: rgb(225, 182, 242); fill-opacity: 0.25;" transform="matrix(0.2882692813873291, 0, 0, 0.2882692813873291, 565.6482238769531, 193.48779296875)"/><path d="M 239 626.2000122070312 L 250.60000610351562 662 L 288.20001220703125 662 L 257.79998779296875 684.0999755859375 L 269.3999938964844 719.9000244140625 L 239 697.7999877929688 L 208.60000610351562 719.9000244140625 L 220.1999969482422 684.0999755859375 L 189.8000030517578 662 L 227.39999389648438 662 Z" class="st0" style="fill: rgb(225, 182, 242); fill-opacity: 0.25;" transform="matrix(0.17656712234020233, 0, 0, 0.17656712234020233, 747.3254699707031, 463.4813537597656)"/><path d="M 239 626.2000122070312 L 250.60000610351562 662 L 288.20001220703125 662 L 257.79998779296875 684.0999755859375 L 269.3999938964844 719.9000244140625 L 239 697.7999877929688 L 208.60000610351562 719.9000244140625 L 220.1999969482422 684.0999755859375 L 189.8000030517578 662 L 227.39999389648438 662 Z" class="st0" style="fill: rgb(225, 182, 242); fill-opacity: 0.25;" transform="matrix(0.3776313364505768, 0, 0, 0.3776313364505768, 1045.5036926269531, 133.13282775878906)"/><path d="M 239 626.2000122070312 L 250.60000610351562 662 L 288.20001220703125 662 L 257.79998779296875 684.0999755859375 L 269.3999938964844 719.9000244140625 L 239 697.7999877929688 L 208.60000610351562 719.9000244140625 L 220.1999969482422 684.0999755859375 L 189.8000030517578 662 L 227.39999389648438 662 Z" class="st0" style="fill: rgb(225, 182, 242); fill-opacity: 0.25;" transform="matrix(0.2882692813873291, 0, 0, 0.2882692813873291, 985.5240783691406, 543.0179138183594)"/><path d="M 239 626.2000122070312 L 250.60000610351562 662 L 288.20001220703125 662 L 257.79998779296875 684.0999755859375 L 269.3999938964844 719.9000244140625 L 239 697.7999877929688 L 208.60000610351562 719.9000244140625 L 220.1999969482422 684.0999755859375 L 189.8000030517578 662 L 227.39999389648438 662 Z" class="st0" style="fill: rgb(225, 182, 242); fill-opacity: 0.25;" transform="matrix(0.2882692813873291, 0, 0, 0.2882692813873291, 385.3874816894531, 606.7687072753906)"/><path class="st0" d="M355.7,185.2c20.2,7.9,30.5,31.1,22.6,51.2c-8,20.1-30.7,29.9-50.8,22c-2.3-0.9-4.4-2.1-6.5-3.4&#10;&#9;&#9;&#9;c11.8,25.2,41.9,36.1,67.1,24.2c11.6-5.4,20.7-15.1,25.4-27c10-25.9-2.9-54.9-28.7-64.9C375.5,183.8,365.4,183,355.7,185.2z" style="fill: rgb(225, 182, 242); fill-opacity: 0.25;" transform="matrix(-0.24133072793483734, 0.176388218998909, -0.176388218998909, -0.24133072793483734, 872.6643981933594, 164.4512481689453)"/><path d="M 239 626.2000122070312 L 250.60000610351562 662 L 288.20001220703125 662 L 257.79998779296875 684.0999755859375 L 269.3999938964844 719.9000244140625 L 239 697.7999877929688 L 208.60000610351562 719.9000244140625 L 220.1999969482422 684.0999755859375 L 189.8000030517578 662 L 227.39999389648438 662 Z" class="st0" style="fill: rgb(225, 182, 242); fill-opacity: 0.25;" transform="matrix(0.3776303231716156, -0.0009207092225551605, 0.0009207092225551605, 0.3776303231716156, 1160.3638000488281, 249.84384155273438)"/><path d="M 239 626.2000122070312 L 250.60000610351562 662 L 288.20001220703125 662 L 257.79998779296875 684.0999755859375 L 269.3999938964844 719.9000244140625 L 239 697.7999877929688 L 208.60000610351562 719.9000244140625 L 220.1999969482422 684.0999755859375 L 189.8000030517578 662 L 227.39999389648438 662 Z" class="st0" style="fill: rgb(225, 182, 242); fill-opacity: 0.25;" transform="matrix(0.17656666040420532, -0.0004304911126382649, 0.0004304911126382649, 0.17656666040420532, 994.3482360839844, 358.56890869140625)"/><path class="st0" d="M355.7,185.2c20.2,7.9,30.5,31.1,22.6,51.2c-8,20.1-30.7,29.9-50.8,22c-2.3-0.9-4.4-2.1-6.5-3.4&#10;&#9;&#9;&#9;c11.8,25.2,41.9,36.1,67.1,24.2c11.6-5.4,20.7-15.1,25.4-27c10-25.9-2.9-54.9-28.7-64.9C375.5,183.8,365.4,183,355.7,185.2z" style="fill: rgb(225, 182, 242); fill-opacity: 0.25;" transform="matrix(0.23050819337368011, 0.39284974336624146, -0.39284974336624146, 0.23050819337368011, 556.0226135253906, 322.3553771972656)"/><g transform="matrix(-0.12634606659412384, 0.12288300693035126, -0.12288300693035126, -0.12634606659412384, 214.79732978114362, 433.8286718611539)"><g transform="matrix(1, 0, 0, 1, 0, 0)"><path class="st1" d="M758,754.6c-79.7,0-144.3-64.6-144.3-144.3c0-27.4,7.6-53,20.9-74.8c-56.9,19.3-97.9,73.2-97.9,136.6&#10;&#9;&#9;&#9;c0,79.7,64.6,144.3,144.3,144.3c52.3,0,98.1-27.8,123.4-69.5C789.8,751.9,774.2,754.6,758,754.6z" style="fill: rgb(225, 182, 242); fill-opacity: 0.25;" transform="matrix(1, 0, 0, 1, -364.60170478164446, 88.00731860801)"/></g></g><path class="st1" d="M758,754.6c-79.7,0-144.3-64.6-144.3-144.3c0-27.4,7.6-53,20.9-74.8c-56.9,19.3-97.9,73.2-97.9,136.6&#10;&#9;&#9;&#9;c0,79.7,64.6,144.3,144.3,144.3c52.3,0,98.1-27.8,123.4-69.5C789.8,751.9,774.2,754.6,758,754.6z" style="fill: rgb(225, 182, 242); fill-opacity: 0.25;" transform="matrix(-0.10620419078953816, -0.10004432944104727, 0.10004432944104727, -0.10620419078953816, 879.2953224356178, 294.95880644542825)"/><g transform="matrix(0.1762480735778809, 0, 0, 0.1762480735778809, 165.14278110478517, 463.90138650027205)"><g transform="matrix(1, 0, 0, 1, 0, 0)"><path class="st1" d="M758,754.6c-79.7,0-144.3-64.6-144.3-144.3c0-27.4,7.6-53,20.9-74.8c-56.9,19.3-97.9,73.2-97.9,136.6&#10;&#9;&#9;&#9;c0,79.7,64.6,144.3,144.3,144.3c52.3,0,98.1-27.8,123.4-69.5C789.8,751.9,774.2,754.6,758,754.6z" style="fill: rgb(225, 182, 242); fill-opacity: 0.25;" transform="matrix(1, 0, 0, 1, -364.60170478164446, 88.00731860801)"/></g></g><g transform="matrix(0.062492014907395727, -0.16479773595954217, 0.16479773595954217, 0.062492014907395727, 543.9349917145494, 804.5690805712342)"><g transform="matrix(1, 0, 0, 1, 0, 0)"><path class="st1" d="M758,754.6c-79.7,0-144.3-64.6-144.3-144.3c0-27.4,7.6-53,20.9-74.8c-56.9,19.3-97.9,73.2-97.9,136.6&#10;&#9;&#9;&#9;c0,79.7,64.6,144.3,144.3,144.3c52.3,0,98.1-27.8,123.4-69.5C789.8,751.9,774.2,754.6,758,754.6z" style="fill: rgb(225, 182, 242); fill-opacity: 0.25;" transform="matrix(1, 0, 0, 1, -364.60170478164446, 88.00731860801)"/></g></g><g transform="matrix(0.1762480735778809, 0, 0, 0.1762480735778809, 1283.5290459873281, -44.456006628156615)"><g transform="matrix(1, 0, 0, 1, 0, 0)"><path class="st1" d="M758,754.6c-79.7,0-144.3-64.6-144.3-144.3c0-27.4,7.6-53,20.9-74.8c-56.9,19.3-97.9,73.2-97.9,136.6&#10;&#9;&#9;&#9;c0,79.7,64.6,144.3,144.3,144.3c52.3,0,98.1-27.8,123.4-69.5C789.8,751.9,774.2,754.6,758,754.6z" style="fill: rgb(225, 182, 242); fill-opacity: 0.25;" transform="matrix(1, 0, 0, 1, -364.60170478164446, 88.00731860801)"/></g></g><g transform="matrix(0.02329470365917083, -0.17470249786715275, 0.17470249786715275, 0.02329470365917083, 1350.7418412246932, 345.67385956553994)"><g transform="matrix(1, 0, 0, 1, 0, 0)"><path class="st1" d="M758,754.6c-79.7,0-144.3-64.6-144.3-144.3c0-27.4,7.6-53,20.9-74.8c-56.9,19.3-97.9,73.2-97.9,136.6&#10;&#9;&#9;&#9;c0,79.7,64.6,144.3,144.3,144.3c52.3,0,98.1-27.8,123.4-69.5C789.8,751.9,774.2,754.6,758,754.6z" style="fill: rgb(225, 182, 242); fill-opacity: 0.25;" transform="matrix(1, 0, 0, 1, -364.60170478164446, 88.00731860801)"/></g></g><g transform="matrix(0.1762480735778809, 0, 0, 0.1762480735778809, 38.740402272851725, -63.69115123301606)"><g transform="matrix(1, 0, 0, 1, 0, 0)"><path class="st1" d="M758,754.6c-79.7,0-144.3-64.6-144.3-144.3c0-27.4,7.6-53,20.9-74.8c-56.9,19.3-97.9,73.2-97.9,136.6&#10;&#9;&#9;&#9;c0,79.7,64.6,144.3,144.3,144.3c52.3,0,98.1-27.8,123.4-69.5C789.8,751.9,774.2,754.6,758,754.6z" style="fill: rgb(225, 182, 242); fill-opacity: 0.25;" transform="matrix(1, 0, 0, 1, -364.60170478164446, 88.00731860801)"/></g></g><g transform="matrix(0.042027878286947325, 0.17116479977274895, -0.17116479977274895, 0.042027878286947325, 1546.0356734853556, 808.0963029703388)"><g transform="matrix(1, 0, 0, 1, 0, 0)"><path class="st1" d="M758,754.6c-79.7,0-144.3-64.6-144.3-144.3c0-27.4,7.6-53,20.9-74.8c-56.9,19.3-97.9,73.2-97.9,136.6&#10;&#9;&#9;&#9;c0,79.7,64.6,144.3,144.3,144.3c52.3,0,98.1-27.8,123.4-69.5C789.8,751.9,774.2,754.6,758,754.6z" style="fill: rgb(225, 182, 242); fill-opacity: 0.25;" transform="matrix(1, 0, 0, 1, -364.60170478164446, 88.00731860801)"/></g></g><g transform="matrix(0.021684997716861405, 0.11259061725520952, -0.11259061725520952, 0.021684997716861405, 292.9498153913853, 791.6884007525737)"><g transform="matrix(1, 0, 0, 1, 0, 0)"><path class="st1" d="M758,754.6c-79.7,0-144.3-64.6-144.3-144.3c0-27.4,7.6-53,20.9-74.8c-56.9,19.3-97.9,73.2-97.9,136.6&#10;&#9;&#9;&#9;c0,79.7,64.6,144.3,144.3,144.3c52.3,0,98.1-27.8,123.4-69.5C789.8,751.9,774.2,754.6,758,754.6z" style="fill: rgb(225, 182, 242); fill-opacity: 0.25;" transform="matrix(1, 0, 0, 1, -364.60170478164446, 88.00731860801)"/></g></g><g transform="matrix(0.15571853259557616, 0, 0, 0.15571853259557616, 374.76670998479847, -39.899334330747564)"><g transform="matrix(1, 0, 0, 1, 0, 0)"><path class="st1" d="M758,754.6c-79.7,0-144.3-64.6-144.3-144.3c0-27.4,7.6-53,20.9-74.8c-56.9,19.3-97.9,73.2-97.9,136.6&#10;&#9;&#9;&#9;c0,79.7,64.6,144.3,144.3,144.3c52.3,0,98.1-27.8,123.4-69.5C789.8,751.9,774.2,754.6,758,754.6z" style="fill: rgb(225, 182, 242); fill-opacity: 0.25;" transform="matrix(1, 0, 0, 1, -364.60170478164446, 88.00731860801)"/></g></g><g transform="matrix(0.09412996516925111, 0, 0, 0.09412996516925111, 792.0519448482971, 267.79364330252656)"><g transform="matrix(1, 0, 0, 1, 0, 0)"><path class="st1" d="M758,754.6c-79.7,0-144.3-64.6-144.3-144.3c0-27.4,7.6-53,20.9-74.8c-56.9,19.3-97.9,73.2-97.9,136.6&#10;&#9;&#9;&#9;c0,79.7,64.6,144.3,144.3,144.3c52.3,0,98.1-27.8,123.4-69.5C789.8,751.9,774.2,754.6,758,754.6z" style="fill: rgb(225, 182, 242); fill-opacity: 0.25;" transform="matrix(1, 0, 0, 1, -364.60170478164446, 88.00731860801)"/></g></g><g transform="matrix(0.1762480735778809, 0, 0, 0.1762480735778809, 1011.4891437186016, 458.40563089888366)"><g transform="matrix(1, 0, 0, 1, 0, 0)"><path class="st1" d="M758,754.6c-79.7,0-144.3-64.6-144.3-144.3c0-27.4,7.6-53,20.9-74.8c-56.9,19.3-97.9,73.2-97.9,136.6&#10;&#9;&#9;&#9;c0,79.7,64.6,144.3,144.3,144.3c52.3,0,98.1-27.8,123.4-69.5C789.8,751.9,774.2,754.6,758,754.6z" style="fill: rgb(225, 182, 242); fill-opacity: 0.25;" transform="matrix(1, 0, 0, 1, -364.60170478164446, 88.00731860801)"/></g></g><g transform="matrix(0.1423100167612791, -0.10397878869510244, 0.10397878869510244, 0.1423100167612791, 381.8704226147927, 568.3550045406987)"><g transform="matrix(1, 0, 0, 1, 0, 0)"><path class="st1" d="M758,754.6c-79.7,0-144.3-64.6-144.3-144.3c0-27.4,7.6-53,20.9-74.8c-56.9,19.3-97.9,73.2-97.9,136.6&#10;&#9;&#9;&#9;c0,79.7,64.6,144.3,144.3,144.3c52.3,0,98.1-27.8,123.4-69.5C789.8,751.9,774.2,754.6,758,754.6z" style="fill: rgb(225, 182, 242); fill-opacity: 0.25;" transform="matrix(1, 0, 0, 1, -364.60170478164446, 88.00731860801)"/></g></g><g transform="matrix(0.09412997215986253, 0, 0, 0.09412997215986253, 1187.74626035936, 188.64716188978878)"><g transform="matrix(1, 0, 0, 1, 0, 0)"><path class="st1" d="M758,754.6c-79.7,0-144.3-64.6-144.3-144.3c0-27.4,7.6-53,20.9-74.8c-56.9,19.3-97.9,73.2-97.9,136.6&#10;&#9;&#9;&#9;c0,79.7,64.6,144.3,144.3,144.3c52.3,0,98.1-27.8,123.4-69.5C789.8,751.9,774.2,754.6,758,754.6z" style="fill: rgb(225, 182, 242); fill-opacity: 0.25;" transform="matrix(1, 0, 0, 1, -364.60170478164446, 88.00731860801)"/></g></g><g transform="matrix(0.09412997215986253, 0, 0, 0.09412997215986253, 1385.5934620093428, 413.9731415467139)"><g transform="matrix(1, 0, 0, 1, 0, 0)"><path class="st1" d="M758,754.6c-79.7,0-144.3-64.6-144.3-144.3c0-27.4,7.6-53,20.9-74.8c-56.9,19.3-97.9,73.2-97.9,136.6&#10;&#9;&#9;&#9;c0,79.7,64.6,144.3,144.3,144.3c52.3,0,98.1-27.8,123.4-69.5C789.8,751.9,774.2,754.6,758,754.6z" style="fill: rgb(225, 182, 242); fill-opacity: 0.25;" transform="matrix(1, 0, 0, 1, -364.60170478164446, 88.00731860801)"/></g></g><g transform="matrix(0.09412997215986253, 0, 0, 0.09412997215986253, 272.7029527281884, 661.2821436091926)"><g transform="matrix(1, 0, 0, 1, 0, 0)"><path class="st1" d="M758,754.6c-79.7,0-144.3-64.6-144.3-144.3c0-27.4,7.6-53,20.9-74.8c-56.9,19.3-97.9,73.2-97.9,136.6&#10;&#9;&#9;&#9;c0,79.7,64.6,144.3,144.3,144.3c52.3,0,98.1-27.8,123.4-69.5C789.8,751.9,774.2,754.6,758,754.6z" style="fill: rgb(225, 182, 242); fill-opacity: 0.25;" transform="matrix(1, 0, 0, 1, -364.60170478164446, 88.00731860801)"/></g></g><g transform="matrix(0.029766216874122568, -0.08930002152919769, 0.08930002152919769, 0.029766216874122568, 7.091405868529819, 484.96978759765614)"><g transform="matrix(1, 0, 0, 1, 0, 0)"><path class="st1" d="M758,754.6c-79.7,0-144.3-64.6-144.3-144.3c0-27.4,7.6-53,20.9-74.8c-56.9,19.3-97.9,73.2-97.9,136.6&#10;&#9;&#9;&#9;c0,79.7,64.6,144.3,144.3,144.3c52.3,0,98.1-27.8,123.4-69.5C789.8,751.9,774.2,754.6,758,754.6z" style="fill: rgb(225, 182, 242); fill-opacity: 0.25;" transform="matrix(1, 0, 0, 1, -364.60170478164446, 88.00731860801)"/></g></g><g transform="matrix(0.09412997215986253, 0, 0, 0.09412997215986253, 819.5306350663359, 809.6675448466799)"><g transform="matrix(1, 0, 0, 1, 0, 0)"><path class="st1" d="M758,754.6c-79.7,0-144.3-64.6-144.3-144.3c0-27.4,7.6-53,20.9-74.8c-56.9,19.3-97.9,73.2-97.9,136.6&#10;&#9;&#9;&#9;c0,79.7,64.6,144.3,144.3,144.3c52.3,0,98.1-27.8,123.4-69.5C789.8,751.9,774.2,754.6,758,754.6z" style="fill: rgb(225, 182, 242); fill-opacity: 0.25;" transform="matrix(1, 0, 0, 1, -364.60170478164446, 88.00731860801)"/></g></g><g transform="matrix(0.09412997215986253, 0, 0, 0.09412997215986253, 1226.2165495690788, 842.6420784550105)"><g transform="matrix(1, 0, 0, 1, 0, 0)"><path class="st1" d="M758,754.6c-79.7,0-144.3-64.6-144.3-144.3c0-27.4,7.6-53,20.9-74.8c-56.9,19.3-97.9,73.2-97.9,136.6&#10;&#9;&#9;&#9;c0,79.7,64.6,144.3,144.3,144.3c52.3,0,98.1-27.8,123.4-69.5C789.8,751.9,774.2,754.6,758,754.6z" style="fill: rgb(225, 182, 242); fill-opacity: 0.25;" transform="matrix(1, 0, 0, 1, -364.60170478164446, 88.00731860801)"/></g></g><g transform="matrix(0.09412997215986253, 0, 0, 0.09412997215986253, 28.141828466403695, 828.9026894515395)"><g transform="matrix(1, 0, 0, 1, 0, 0)"><path class="st1" d="M758,754.6c-79.7,0-144.3-64.6-144.3-144.3c0-27.4,7.6-53,20.9-74.8c-56.9,19.3-97.9,73.2-97.9,136.6&#10;&#9;&#9;&#9;c0,79.7,64.6,144.3,144.3,144.3c52.3,0,98.1-27.8,123.4-69.5C789.8,751.9,774.2,754.6,758,754.6z" style="fill: rgb(225, 182, 242); fill-opacity: 0.25;" transform="matrix(1, 0, 0, 1, -364.60170478164446, 88.00731860801)"/></g></g><g transform="matrix(0.09412997215986253, 0, 0, 0.09412997215986253, 8.906683861544025, 518.3924979730939)"><g transform="matrix(1, 0, 0, 1, 0, 0)"><path class="st1" d="M758,754.6c-79.7,0-144.3-64.6-144.3-144.3c0-27.4,7.6-53,20.9-74.8c-56.9,19.3-97.9,73.2-97.9,136.6&#10;&#9;&#9;&#9;c0,79.7,64.6,144.3,144.3,144.3c52.3,0,98.1-27.8,123.4-69.5C789.8,751.9,774.2,754.6,758,754.6z" style="fill: rgb(225, 182, 242); fill-opacity: 0.25;" transform="matrix(1, 0, 0, 1, -364.60170478164446, 88.00731860801)"/></g></g><g transform="matrix(-0.007101850208634035, 0.09386283532308906, -0.09386283532308906, -0.007101850208634035, 883.7390746379103, 17.437330974780423)"><g transform="matrix(1, 0, 0, 1, 0, 0)"><path class="st1" d="M758,754.6c-79.7,0-144.3-64.6-144.3-144.3c0-27.4,7.6-53,20.9-74.8c-56.9,19.3-97.9,73.2-97.9,136.6&#10;&#9;&#9;&#9;c0,79.7,64.6,144.3,144.3,144.3c52.3,0,98.1-27.8,123.4-69.5C789.8,751.9,774.2,754.6,758,754.6z" style="fill: rgb(225, 182, 242); fill-opacity: 0.25;" transform="matrix(1, 0, 0, 1, -364.60170478164446, 88.00731860801)"/></g></g><path d="M 239 626.2000122070312 L 250.60000610351562 662 L 288.20001220703125 662 L 257.79998779296875 684.0999755859375 L 269.3999938964844 719.9000244140625 L 239 697.7999877929688 L 208.60000610351562 719.9000244140625 L 220.1999969482422 684.0999755859375 L 189.8000030517578 662 L 227.39999389648438 662 Z" class="st0" style="fill: rgb(225, 182, 242); fill-opacity: 0.25;" transform="matrix(0.14864131808280942, 0, 0, 0.14864131808280942, 150.5656643492389, -20.84449746869734)"/><path d="M 239 626.2000122070312 L 250.60000610351562 662 L 288.20001220703125 662 L 257.79998779296875 684.0999755859375 L 269.3999938964844 719.9000244140625 L 239 697.7999877929688 L 208.60000610351562 719.9000244140625 L 220.1999969482422 684.0999755859375 L 189.8000030517578 662 L 227.39999389648438 662 Z" class="st0" style="fill: rgb(225, 182, 242); fill-opacity: 0.25;" transform="matrix(0.14864131808280942, 0, 0, 0.14864131808280942, 216.51473156589964, 366.6062724291859)"/><path d="M 239 626.2000122070312 L 250.60000610351562 662 L 288.20001220703125 662 L 257.79998779296875 684.0999755859375 L 269.3999938964844 719.9000244140625 L 239 697.7999877929688 L 208.60000610351562 719.9000244140625 L 220.1999969482422 684.0999755859375 L 189.8000030517578 662 L 227.39999389648438 662 Z" class="st0" style="fill: rgb(225, 182, 242); fill-opacity: 0.25;" transform="matrix(0.14864131808280942, 0, 0, 0.14864131808280942, 1469.5470086824585, -62.06266447911048)"/><path d="M 239 626.2000122070312 L 250.60000610351562 662 L 288.20001220703125 662 L 257.79998779296875 684.0999755859375 L 269.3999938964844 719.9000244140625 L 239 697.7999877929688 L 208.60000610351562 719.9000244140625 L 220.1999969482422 684.0999755859375 L 189.8000030517578 662 L 227.39999389648438 662 Z" class="st0" style="fill: rgb(225, 182, 242); fill-opacity: 0.25;" transform="matrix(0.14864131808280942, 0, 0, 0.14864131808280942, 1208.4986176165087, -73.05417568188739)"/><path d="M 239 626.2000122070312 L 250.60000610351562 662 L 288.20001220703125 662 L 257.79998779296875 684.0999755859375 L 269.3999938964844 719.9000244140625 L 239 697.7999877929688 L 208.60000610351562 719.9000244140625 L 220.1999969482422 684.0999755859375 L 189.8000030517578 662 L 227.39999389648438 662 Z" class="st0" style="fill: rgb(225, 182, 242); fill-opacity: 0.25;" transform="matrix(0.14864131808280942, 0, 0, 0.14864131808280942, 1384.362796860938, 586.4364964847225)"/><path d="M 239 626.2000122070312 L 250.60000610351562 662 L 288.20001220703125 662 L 257.79998779296875 684.0999755859375 L 269.3999938964844 719.9000244140625 L 239 697.7999877929688 L 208.60000610351562 719.9000244140625 L 220.1999969482422 684.0999755859375 L 189.8000030517578 662 L 227.39999389648438 662 Z" class="st0" style="fill: rgb(225, 182, 242); fill-opacity: 0.25;" transform="matrix(0.14864131808280942, 0, 0, 0.14864131808280942, 1150.7931838019304, 600.1758854881936)"/><path d="M 239 626.2000122070312 L 250.60000610351562 662 L 288.20001220703125 662 L 257.79998779296875 684.0999755859375 L 269.3999938964844 719.9000244140625 L 239 697.7999877929688 L 208.60000610351562 719.9000244140625 L 220.1999969482422 684.0999755859375 L 189.8000030517578 662 L 227.39999389648438 662 Z" class="st0" style="fill: rgb(225, 182, 242); fill-opacity: 0.25;" transform="matrix(0.14864131808280942, 0, 0, 0.14864131808280942, 598.4697458623946, 487.51289565973104)"/><path d="M 239 626.2000122070312 L 250.60000610351562 662 L 288.20001220703125 662 L 257.79998779296875 684.0999755859375 L 269.3999938964844 719.9000244140625 L 239 697.7999877929688 L 208.60000610351562 719.9000244140625 L 220.1999969482422 684.0999755859375 L 189.8000030517578 662 L 227.39999389648438 662 Z" class="st0" style="fill: rgb(225, 182, 242); fill-opacity: 0.25;" transform="matrix(0.14864131808280942, 0, 0, 0.14864131808280942, 301.6989433874203, 803.5188427395649)"/><path d="M 239 626.2000122070312 L 250.60000610351562 662 L 288.20001220703125 662 L 257.79998779296875 684.0999755859375 L 269.3999938964844 719.9000244140625 L 239 697.7999877929688 L 208.60000610351562 719.9000244140625 L 220.1999969482422 684.0999755859375 L 189.8000030517578 662 L 227.39999389648438 662 Z" class="st0" style="fill: rgb(225, 182, 242); fill-opacity: 0.25;" transform="matrix(0.14864131808280942, 0, 0, 0.14864131808280942, 694.645468886692, 825.5018651451186)"/><path d="M 239 626.2000122070312 L 250.60000610351562 662 L 288.20001220703125 662 L 257.79998779296875 684.0999755859375 L 269.3999938964844 719.9000244140625 L 239 697.7999877929688 L 208.60000610351562 719.9000244140625 L 220.1999969482422 684.0999755859375 L 189.8000030517578 662 L 227.39999389648438 662 Z" class="st0" style="fill: rgb(225, 182, 242); fill-opacity: 0.25;" transform="matrix(0.14864131808280942, 0, 0, 0.14864131808280942, 276.96804318117233, 113.80151476531876)"/><path d="M 239 626.2000122070312 L 250.60000610351562 662 L 288.20001220703125 662 L 257.79998779296875 684.0999755859375 L 269.3999938964844 719.9000244140625 L 239 697.7999877929688 L 208.60000610351562 719.9000244140625 L 220.1999969482422 684.0999755859375 L 189.8000030517578 662 L 227.39999389648438 662 Z" class="st0" style="fill: rgb(225, 182, 242); fill-opacity: 0.25;" transform="matrix(0.14864131808280942, 0, 0, 0.14864131808280942, 826.5436033200139, 644.1419302993008)"/><path d="M 239 626.2000122070312 L 250.60000610351562 662 L 288.20001220703125 662 L 257.79998779296875 684.0999755859375 L 269.3999938964844 719.9000244140625 L 239 697.7999877929688 L 208.60000610351562 719.9000244140625 L 220.1999969482422 684.0999755859375 L 189.8000030517578 662 L 227.39999389648438 662 Z" class="st0" style="fill: rgb(225, 182, 242); fill-opacity: 0.25;" transform="matrix(0.14864131808280942, 0, 0, 0.14864131808280942, 477.5631226318494, 781.5358203340113)"/><path d="M 239 626.2000122070312 L 250.60000610351562 662 L 288.20001220703125 662 L 257.79998779296875 684.0999755859375 L 269.3999938964844 719.9000244140625 L 239 697.7999877929688 L 208.60000610351562 719.9000244140625 L 220.1999969482422 684.0999755859375 L 189.8000030517578 662 L 227.39999389648438 662 Z" class="st0" style="fill: rgb(225, 182, 242); fill-opacity: 0.25;" transform="matrix(0.14864131808280942, 0, 0, 0.14864131808280942, 268.7244097790897, 300.6572052125249)"/><path d="M 239 626.2000122070312 L 250.60000610351562 662 L 288.20001220703125 662 L 257.79998779296875 684.0999755859375 L 269.3999938964844 719.9000244140625 L 239 697.7999877929688 L 208.60000610351562 719.9000244140625 L 220.1999969482422 684.0999755859375 L 189.8000030517578 662 L 227.39999389648438 662 Z" class="st0" style="fill: rgb(225, 182, 242); fill-opacity: 0.25;" transform="matrix(0.14864131808280942, 0, 0, 0.14864131808280942, 307.19469898880857, 495.7565290618137)"/><path class="st0" d="M355.7,185.2c20.2,7.9,30.5,31.1,22.6,51.2c-8,20.1-30.7,29.9-50.8,22c-2.3-0.9-4.4-2.1-6.5-3.4&#10;&#9;&#9;&#9;c11.8,25.2,41.9,36.1,67.1,24.2c11.6-5.4,20.7-15.1,25.4-27c10-25.9-2.9-54.9-28.7-64.9C375.5,183.8,365.4,183,355.7,185.2z" style="fill: rgb(225, 182, 242); fill-opacity: 0.25;" transform="matrix(-0.24133072793483734, 0.17638833820819855, -0.17638833820819855, -0.24133072793483734, 679.1228581506241, 227.22113756377576)"/><path class="st0" d="M355.7,185.2c20.2,7.9,30.5,31.1,22.6,51.2c-8,20.1-30.7,29.9-50.8,22c-2.3-0.9-4.4-2.1-6.5-3.4&#10;&#9;&#9;&#9;c11.8,25.2,41.9,36.1,67.1,24.2c11.6-5.4,20.7-15.1,25.4-27c10-25.9-2.9-54.9-28.7-64.9C375.5,183.8,365.4,183,355.7,185.2z" style="fill: rgb(225, 182, 242); fill-opacity: 0.25;" transform="matrix(0.23968466159842416, -0.17861784711562, 0.17861784711562, 0.23968466159842416, 1122.0413774490085, 732.0161771406496)"/><path class="st0" d="M355.7,185.2c20.2,7.9,30.5,31.1,22.6,51.2c-8,20.1-30.7,29.9-50.8,22c-2.3-0.9-4.4-2.1-6.5-3.4&#10;&#9;&#9;&#9;c11.8,25.2,41.9,36.1,67.1,24.2c11.6-5.4,20.7-15.1,25.4-27c10-25.9-2.9-54.9-28.7-64.9C375.5,183.8,365.4,183,355.7,185.2z" style="fill: rgb(225, 182, 242); fill-opacity: 0.25;" transform="matrix(-0.24133072793483734, 0.1763883084058761, -0.1763883084058761, -0.24133072793483734, 978.6415420350738, 534.9834456444255)"/><path class="st0" d="M355.7,185.2c20.2,7.9,30.5,31.1,22.6,51.2c-8,20.1-30.7,29.9-50.8,22c-2.3-0.9-4.4-2.1-6.5-3.4&#10;&#9;&#9;&#9;c11.8,25.2,41.9,36.1,67.1,24.2c11.6-5.4,20.7-15.1,25.4-27c10-25.9-2.9-54.9-28.7-64.9C375.5,183.8,365.4,183,355.7,185.2z" style="fill: rgb(225, 182, 242); fill-opacity: 0.25;" transform="matrix(-0.18762384696658185, 0.13713404363326973, -0.13713404363326973, -0.18762384696658185, 1148.0997936922793, 205.33271085637554)"/><path class="st0" d="M355.7,185.2c20.2,7.9,30.5,31.1,22.6,51.2c-8,20.1-30.7,29.9-50.8,22c-2.3-0.9-4.4-2.1-6.5-3.4&#10;&#9;&#9;&#9;c11.8,25.2,41.9,36.1,67.1,24.2c11.6-5.4,20.7-15.1,25.4-27c10-25.9-2.9-54.9-28.7-64.9C375.5,183.8,365.4,183,355.7,185.2z" style="fill: rgb(225, 182, 242); fill-opacity: 0.25;" transform="matrix(-0.24133072793483734, 0.1763883084058761, -0.1763883084058761, -0.24133072793483734, 305.4114808649929, 326.14473279166566)"/><path class="st0" d="M355.7,185.2c20.2,7.9,30.5,31.1,22.6,51.2c-8,20.1-30.7,29.9-50.8,22c-2.3-0.9-4.4-2.1-6.5-3.4&#10;&#9;&#9;&#9;c11.8,25.2,41.9,36.1,67.1,24.2c11.6-5.4,20.7-15.1,25.4-27c10-25.9-2.9-54.9-28.7-64.9C375.5,183.8,365.4,183,355.7,185.2z" style="fill: rgb(225, 182, 242); fill-opacity: 0.25;" transform="matrix(-0.3095924289752414, 0.22628073323314063, -0.22628073323314063, -0.3095924289752414, 836.1120032368183, 439.4321784669233)"/></svg>