<?xml version="1.0" encoding="utf-8"?>
<svg id="master-artboard" viewBox="0 0 556.1312255859375 938.22021484375" version="1.1" xmlns="http://www.w3.org/2000/svg" x="0px" y="0px" style="enable-background:new 0 0 850.4 1133.9;" width="556.1312255859375px" height="938.22021484375px"><rect id="ee-background" x="0" y="0" width="556.1312255859375" height="938.22021484375" style="fill: rgb(62, 65, 73); fill-opacity: 1; pointer-events: none;"/><g transform="matrix(0.41076024918448045, 0, 0, 0.41076024918448045, -40.251739142539975, -233.67767181302315)"><path d="M 239 626.2000122070312 L 250.60000610351562 662 L 288.20001220703125 662 L 257.79998779296875 684.0999755859375 L 269.3999938964844 719.9000244140625 L 239 697.7999877929688 L 208.60000610351562 719.9000244140625 L 220.1999969482422 684.0999755859375 L 189.8000030517578 662 L 227.39999389648438 662 Z" class="st0" style="fill: rgb(51, 51, 51);" transform="matrix(1, 0, 0, 1, 0, 0)"/></g><g transform="matrix(0.41076022386550903, 0, 0, 0.41076022386550903, 75.261648584554, 16.715643838975467)"><path d="M 239 626.2000122070312 L 250.60000610351562 662 L 288.20001220703125 662 L 257.79998779296875 684.0999755859375 L 269.3999938964844 719.9000244140625 L 239 697.7999877929688 L 208.60000610351562 719.9000244140625 L 220.1999969482422 684.0999755859375 L 189.8000030517578 662 L 227.39999389648438 662 Z" class="st0" style="fill: rgb(51, 51, 51);" transform="matrix(1, 0, 0, 1, 0, 0)"/></g><g transform="matrix(0.41076022386550903, 0, 0, 0.41076022386550903, 54.9972012090476, 259.8890123450519)"><path d="M 239 626.2000122070312 L 250.60000610351562 662 L 288.20001220703125 662 L 257.79998779296875 684.0999755859375 L 269.3999938964844 719.9000244140625 L 239 697.7999877929688 L 208.60000610351562 719.9000244140625 L 220.1999969482422 684.0999755859375 L 189.8000030517578 662 L 227.39999389648438 662 Z" class="st0" style="fill: rgb(51, 51, 51);" transform="matrix(1, 0, 0, 1, 0, 0)"/></g><g transform="matrix(0.41076022386550903, 0, 0, 0.41076022386550903, 191.32166173423366, 480.9557163652541)"><path d="M 239 626.2000122070312 L 250.60000610351562 662 L 288.20001220703125 662 L 257.79998779296875 684.0999755859375 L 269.3999938964844 719.9000244140625 L 239 697.7999877929688 L 208.60000610351562 719.9000244140625 L 220.1999969482422 684.0999755859375 L 189.8000030517578 662 L 227.39999389648438 662 Z" class="st0" style="fill: rgb(51, 51, 51);" transform="matrix(1, 0, 0, 1, 0, 0)"/></g><g transform="matrix(0.41076022386550903, 0, 0, 0.41076022386550903, 86.314981185634, -80.92214800020326)"><path d="M 239 626.2000122070312 L 250.60000610351562 662 L 288.20001220703125 662 L 257.79998779296875 684.0999755859375 L 269.3999938964844 719.9000244140625 L 239 697.7999877929688 L 208.60000610351562 719.9000244140625 L 220.1999969482422 684.0999755859375 L 189.8000030517578 662 L 227.39999389648438 662 Z" class="st0" style="fill: rgb(51, 51, 51);" transform="matrix(1, 0, 0, 1, 0, 0)"/></g><g transform="matrix(0.41076022386550903, 0, 0, 0.41076022386550903, 196.84833283759224, 114.35343573914247)"><path d="M 239 626.2000122070312 L 250.60000610351562 662 L 288.20001220703125 662 L 257.79998779296875 684.0999755859375 L 269.3999938964844 719.9000244140625 L 239 697.7999877929688 L 208.60000610351562 719.9000244140625 L 220.1999969482422 684.0999755859375 L 189.8000030517578 662 L 227.39999389648438 662 Z" class="st0" style="fill: rgb(51, 51, 51);" transform="matrix(1, 0, 0, 1, 0, 0)"/></g><g transform="matrix(0.41076022386550903, 0, 0, 0.41076022386550903, -16.849474881332867, -106.71326120050934)"><path d="M 239 626.2000122070312 L 250.60000610351562 662 L 288.20001220703125 662 L 257.79998779296875 684.0999755859375 L 269.3999938964844 719.9000244140625 L 239 697.7999877929688 L 208.60000610351562 719.9000244140625 L 220.1999969482422 684.0999755859375 L 189.8000030517578 662 L 227.39999389648438 662 Z" class="st0" style="fill: rgb(51, 51, 51);" transform="matrix(1, 0, 0, 1, 0, 0)"/></g><g transform="matrix(0.41076022386550903, 0, 0, 0.41076022386550903, 285.2750122943472, -161.97993756321702)"><path d="M 239 626.2000122070312 L 250.60000610351562 662 L 288.20001220703125 662 L 257.79998779296875 684.0999755859375 L 269.3999938964844 719.9000244140625 L 239 697.7999877929688 L 208.60000610351562 719.9000244140625 L 220.1999969482422 684.0999755859375 L 189.8000030517578 662 L 227.39999389648438 662 Z" class="st0" style="fill: rgb(51, 51, 51);" transform="matrix(1, 0, 0, 1, 0, 0)"/></g><g transform="matrix(0.41076022386550903, 0, 0, 0.41076022386550903, 27.363863878811685, 208.30678266194477)"><path d="M 239 626.2000122070312 L 250.60000610351562 662 L 288.20001220703125 662 L 257.79998779296875 684.0999755859375 L 269.3999938964844 719.9000244140625 L 239 697.7999877929688 L 208.60000610351562 719.9000244140625 L 220.1999969482422 684.0999755859375 L 189.8000030517578 662 L 227.39999389648438 662 Z" class="st0" style="fill: rgb(51, 51, 51);" transform="matrix(1, 0, 0, 1, 0, 0)"/></g><g transform="matrix(0.41076022386550903, 0, 0, 0.41076022386550903, -31.58725575902497, 480.9557109869395)"><path d="M 239 626.2000122070312 L 250.60000610351562 662 L 288.20001220703125 662 L 257.79998779296875 684.0999755859375 L 269.3999938964844 719.9000244140625 L 239 697.7999877929688 L 208.60000610351562 719.9000244140625 L 220.1999969482422 684.0999755859375 L 189.8000030517578 662 L 227.39999389648438 662 Z" class="st0" style="fill: rgb(51, 51, 51);" transform="matrix(1, 0, 0, 1, 0, 0)"/></g><g transform="matrix(0.41076022386550903, 0, 0, 0.41076022386550903, 220.79722519046334, 563.8557229776474)"><path d="M 239 626.2000122070312 L 250.60000610351562 662 L 288.20001220703125 662 L 257.79998779296875 684.0999755859375 L 269.3999938964844 719.9000244140625 L 239 697.7999877929688 L 208.60000610351562 719.9000244140625 L 220.1999969482422 684.0999755859375 L 189.8000030517578 662 L 227.39999389648438 662 Z" class="st0" style="fill: rgb(51, 51, 51);" transform="matrix(1, 0, 0, 1, 0, 0)"/></g><g transform="matrix(0.41076022386550903, 0, 0, 0.41076022386550903, 327.64612953404236, 361.21124922258366)"><path d="M 239 626.2000122070312 L 250.60000610351562 662 L 288.20001220703125 662 L 257.79998779296875 684.0999755859375 L 269.3999938964844 719.9000244140625 L 239 697.7999877929688 L 208.60000610351562 719.9000244140625 L 220.1999969482422 684.0999755859375 L 189.8000030517578 662 L 227.39999389648438 662 Z" class="st0" style="fill: rgb(51, 51, 51);" transform="matrix(1, 0, 0, 1, 0, 0)"/></g><g transform="matrix(0.41076022386550903, 0, 0, 0.41076022386550903, 88.15720144039358, 479.1134894775751)"><path d="M 239 626.2000122070312 L 250.60000610351562 662 L 288.20001220703125 662 L 257.79998779296875 684.0999755859375 L 269.3999938964844 719.9000244140625 L 239 697.7999877929688 L 208.60000610351562 719.9000244140625 L 220.1999969482422 684.0999755859375 L 189.8000030517578 662 L 227.39999389648438 662 Z" class="st0" style="fill: rgb(51, 51, 51);" transform="matrix(1, 0, 0, 1, 0, 0)"/></g><g transform="matrix(0.41076022386550903, 0, 0, 0.41076022386550903, -55.53614811189618, 7.504531395563475)"><path d="M 239 626.2000122070312 L 250.60000610351562 662 L 288.20001220703125 662 L 257.79998779296875 684.0999755859375 L 269.3999938964844 719.9000244140625 L 239 697.7999877929688 L 208.60000610351562 719.9000244140625 L 220.1999969482422 684.0999755859375 L 189.8000030517578 662 L 227.39999389648438 662 Z" class="st0" style="fill: rgb(51, 51, 51);" transform="matrix(1, 0, 0, 1, 0, 0)"/></g><g transform="matrix(0.41076022386550903, 0, 0, 0.41076022386550903, 169.21499427609103, -176.71771623425334)"><path d="M 239 626.2000122070312 L 250.60000610351562 662 L 288.20001220703125 662 L 257.79998779296875 684.0999755859375 L 269.3999938964844 719.9000244140625 L 239 697.7999877929688 L 208.60000610351562 719.9000244140625 L 220.1999969482422 684.0999755859375 L 189.8000030517578 662 L 227.39999389648438 662 Z" class="st0" style="fill: rgb(51, 51, 51);" transform="matrix(1, 0, 0, 1, 0, 0)"/></g><g transform="matrix(0.41076022386550903, 0, 0, 0.41076022386550903, 327.64612953404236, -217.2466122236889)"><path d="M 239 626.2000122070312 L 250.60000610351562 662 L 288.20001220703125 662 L 257.79998779296875 684.0999755859375 L 269.3999938964844 719.9000244140625 L 239 697.7999877929688 L 208.60000610351562 719.9000244140625 L 220.1999969482422 684.0999755859375 L 189.8000030517578 662 L 227.39999389648438 662 Z" class="st0" style="fill: rgb(51, 51, 51);" transform="matrix(1, 0, 0, 1, 0, 0)"/></g><g transform="matrix(0.41076022386550903, 0, 0, 0.41076022386550903, 180.26833043945066, -77.23770308382677)"><path d="M 239 626.2000122070312 L 250.60000610351562 662 L 288.20001220703125 662 L 257.79998779296875 684.0999755859375 L 269.3999938964844 719.9000244140625 L 239 697.7999877929688 L 208.60000610351562 719.9000244140625 L 220.1999969482422 684.0999755859375 L 189.8000030517578 662 L 227.39999389648438 662 Z" class="st0" style="fill: rgb(51, 51, 51);" transform="matrix(1, 0, 0, 1, 0, 0)"/></g><g transform="matrix(0.41076022386550903, 0, 0, 0.41076022386550903, 357.12168935296074, 200.93789270721513)"><path d="M 239 626.2000122070312 L 250.60000610351562 662 L 288.20001220703125 662 L 257.79998779296875 684.0999755859375 L 269.3999938964844 719.9000244140625 L 239 697.7999877929688 L 208.60000610351562 719.9000244140625 L 220.1999969482422 684.0999755859375 L 189.8000030517578 662 L 227.39999389648438 662 Z" class="st0" style="fill: rgb(51, 51, 51);" transform="matrix(1, 0, 0, 1, 0, 0)"/></g><g transform="matrix(0.41076022386550903, 0, 0, 0.41076022386550903, 215.27055772441616, 291.20679465265255)"><path d="M 239 626.2000122070312 L 250.60000610351562 662 L 288.20001220703125 662 L 257.79998779296875 684.0999755859375 L 269.3999938964844 719.9000244140625 L 239 697.7999877929688 L 208.60000610351562 719.9000244140625 L 220.1999969482422 684.0999755859375 L 189.8000030517578 662 L 227.39999389648438 662 Z" class="st0" style="fill: rgb(51, 51, 51);" transform="matrix(1, 0, 0, 1, 0, 0)"/></g><g transform="matrix(0.41076022386550903, 0, 0, 0.41076022386550903, 163.6883280413091, 188.04233528643834)"><path d="M 239 626.2000122070312 L 250.60000610351562 662 L 288.20001220703125 662 L 257.79998779296875 684.0999755859375 L 269.3999938964844 719.9000244140625 L 239 697.7999877929688 L 208.60000610351562 719.9000244140625 L 220.1999969482422 684.0999755859375 L 189.8000030517578 662 L 227.39999389648438 662 Z" class="st0" style="fill: rgb(51, 51, 51);" transform="matrix(1, 0, 0, 1, 0, 0)"/></g><g transform="matrix(0.41076022386550903, 0, 0, 0.41076022386550903, 399.4928065926558, 492.00904591903384)"><path d="M 239 626.2000122070312 L 250.60000610351562 662 L 288.20001220703125 662 L 257.79998779296875 684.0999755859375 L 269.3999938964844 719.9000244140625 L 239 697.7999877929688 L 208.60000610351562 719.9000244140625 L 220.1999969482422 684.0999755859375 L 189.8000030517578 662 L 227.39999389648438 662 Z" class="st0" style="fill: rgb(51, 51, 51);" transform="matrix(1, 0, 0, 1, 0, 0)"/></g><g transform="matrix(-0.05062424609925649, 0.40762868792189416, -0.40762868792189416, -0.05062424609925649, 687.2044796160086, 493.3857243886513)"><path d="M 239 626.2000122070312 L 250.60000610351562 662 L 288.20001220703125 662 L 257.79998779296875 684.0999755859375 L 269.3999938964844 719.9000244140625 L 239 697.7999877929688 L 208.60000610351562 719.9000244140625 L 220.1999969482422 684.0999755859375 L 189.8000030517578 662 L 227.39999389648438 662 Z" class="st0" style="fill: rgb(51, 51, 51);" transform="matrix(1, 0, 0, 1, 0, 0)"/></g><g transform="matrix(-0.05062424609925649, 0.40762868792189416, -0.40762868792189416, -0.05062424609925649, 745.717979907233, 515.5036345785816)"><path d="M 239 626.2000122070312 L 250.60000610351562 662 L 288.20001220703125 662 L 257.79998779296875 684.0999755859375 L 269.3999938964844 719.9000244140625 L 239 697.7999877929688 L 208.60000610351562 719.9000244140625 L 220.1999969482422 684.0999755859375 L 189.8000030517578 662 L 227.39999389648438 662 Z" class="st0" style="fill: rgb(51, 51, 51);" transform="matrix(1, 0, 0, 1, 0, 0)"/></g><g transform="matrix(-0.05062424609925649, 0.40762868792189416, -0.40762868792189416, -0.05062424609925649, 647.5331674590591, 603.5541092821161)"><path d="M 239 626.2000122070312 L 250.60000610351562 662 L 288.20001220703125 662 L 257.79998779296875 684.0999755859375 L 269.3999938964844 719.9000244140625 L 239 697.7999877929688 L 208.60000610351562 719.9000244140625 L 220.1999969482422 684.0999755859375 L 189.8000030517578 662 L 227.39999389648438 662 Z" class="st0" style="fill: rgb(51, 51, 51);" transform="matrix(1, 0, 0, 1, 0, 0)"/></g><g transform="matrix(-0.3437712965502686, 0.22482272389193741, -0.22482272389193741, -0.3437712965502686, 741.725787851354, 338.33148897877146)"><path d="M 239 626.2000122070312 L 250.60000610351562 662 L 288.20001220703125 662 L 257.79998779296875 684.0999755859375 L 269.3999938964844 719.9000244140625 L 239 697.7999877929688 L 208.60000610351562 719.9000244140625 L 220.1999969482422 684.0999755859375 L 189.8000030517578 662 L 227.39999389648438 662 Z" class="st0" style="fill: rgb(51, 51, 51);" transform="matrix(1, 0, 0, 1, 0, 0)"/></g><g transform="matrix(-0.3437712965502686, 0.22482272389193741, -0.22482272389193741, -0.3437712965502686, 762.6657539674043, 397.27680231606155)"><path d="M 239 626.2000122070312 L 250.60000610351562 662 L 288.20001220703125 662 L 257.79998779296875 684.0999755859375 L 269.3999938964844 719.9000244140625 L 239 697.7999877929688 L 208.60000610351562 719.9000244140625 L 220.1999969482422 684.0999755859375 L 189.8000030517578 662 L 227.39999389648438 662 Z" class="st0" style="fill: rgb(51, 51, 51);" transform="matrix(1, 0, 0, 1, 0, 0)"/></g><g transform="matrix(-0.3437712965502686, 0.22482272389193741, -0.22482272389193741, -0.3437712965502686, 632.0189123346117, 379.26170808847803)"><path d="M 239 626.2000122070312 L 250.60000610351562 662 L 288.20001220703125 662 L 257.79998779296875 684.0999755859375 L 269.3999938964844 719.9000244140625 L 239 697.7999877929688 L 208.60000610351562 719.9000244140625 L 220.1999969482422 684.0999755859375 L 189.8000030517578 662 L 227.39999389648438 662 Z" class="st0" style="fill: rgb(51, 51, 51);" transform="matrix(1, 0, 0, 1, 0, 0)"/></g><g transform="matrix(0.13350428255457222, 0.38845922314913833, -0.38845922314913833, 0.13350428255457222, 253.64820895469745, 425.07867800024087)"><path d="M 239 626.2000122070312 L 250.60000610351562 662 L 288.20001220703125 662 L 257.79998779296875 684.0999755859375 L 269.3999938964844 719.9000244140625 L 239 697.7999877929688 L 208.60000610351562 719.9000244140625 L 220.1999969482422 684.0999755859375 L 189.8000030517578 662 L 227.39999389648438 662 Z" class="st0" style="fill: rgb(51, 51, 51);" transform="matrix(1, 0, 0, 1, 0, 0)"/></g><g transform="matrix(0.13350428255457222, 0.38845922314913833, -0.38845922314913833, 0.13350428255457222, 315.9309876289167, 419.25741111757736)"><path d="M 239 626.2000122070312 L 250.60000610351562 662 L 288.20001220703125 662 L 257.79998779296875 684.0999755859375 L 269.3999938964844 719.9000244140625 L 239 697.7999877929688 L 208.60000610351562 719.9000244140625 L 220.1999969482422 684.0999755859375 L 189.8000030517578 662 L 227.39999389648438 662 Z" class="st0" style="fill: rgb(51, 51, 51);" transform="matrix(1, 0, 0, 1, 0, 0)"/></g><g transform="matrix(0.13350428255457222, 0.38845922314913833, -0.38845922314913833, 0.13350428255457222, 266.38013785948567, 541.4779115848067)"><path d="M 239 626.2000122070312 L 250.60000610351562 662 L 288.20001220703125 662 L 257.79998779296875 684.0999755859375 L 269.3999938964844 719.9000244140625 L 239 697.7999877929688 L 208.60000610351562 719.9000244140625 L 220.1999969482422 684.0999755859375 L 189.8000030517578 662 L 227.39999389648438 662 Z" class="st0" style="fill: rgb(51, 51, 51);" transform="matrix(1, 0, 0, 1, 0, 0)"/></g><g transform="matrix(0.41076022386550903, 0, 0, 0.41076022386550903, -50.00945156753164, 115.27454868571947)"><path d="M 239 626.2000122070312 L 250.60000610351562 662 L 288.20001220703125 662 L 257.79998779296875 684.0999755859375 L 269.3999938964844 719.9000244140625 L 239 697.7999877929688 L 208.60000610351562 719.9000244140625 L 220.1999969482422 684.0999755859375 L 189.8000030517578 662 L 227.39999389648438 662 Z" class="st0" style="fill: rgb(51, 51, 51);" transform="matrix(1, 0, 0, 1, 0, 0)"/></g><g transform="matrix(0.41076022386550903, 0, 0, 0.41076022386550903, -35.271673857570704, 54.48120609538744)"><path d="M 239 626.2000122070312 L 250.60000610351562 662 L 288.20001220703125 662 L 257.79998779296875 684.0999755859375 L 269.3999938964844 719.9000244140625 L 239 697.7999877929688 L 208.60000610351562 719.9000244140625 L 220.1999969482422 684.0999755859375 L 189.8000030517578 662 L 227.39999389648438 662 Z" class="st0" style="fill: rgb(51, 51, 51);" transform="matrix(1, 0, 0, 1, 0, 0)"/></g><g transform="matrix(0.41076022386550903, 0, 0, 0.41076022386550903, 64.20833712875742, 141.0656634928484)"><path d="M 239 626.2000122070312 L 250.60000610351562 662 L 288.20001220703125 662 L 257.79998779296875 684.0999755859375 L 269.3999938964844 719.9000244140625 L 239 697.7999877929688 L 208.60000610351562 719.9000244140625 L 220.1999969482422 684.0999755859375 L 189.8000030517578 662 L 227.39999389648438 662 Z" class="st0" style="fill: rgb(51, 51, 51);" transform="matrix(1, 0, 0, 1, 0, 0)"/></g><g transform="matrix(0.41076022386550903, 0, 0, 0.41076022386550903, 21.83722549108188, 605.305730675237)"><path d="M 239 626.2000122070312 L 250.60000610351562 662 L 288.20001220703125 662 L 257.79998779296875 684.0999755859375 L 269.3999938964844 719.9000244140625 L 239 697.7999877929688 L 208.60000610351562 719.9000244140625 L 220.1999969482422 684.0999755859375 L 189.8000030517578 662 L 227.39999389648438 662 Z" class="st0" style="fill: rgb(51, 51, 51);" transform="matrix(1, 0, 0, 1, 0, 0)"/></g><g transform="matrix(0.41076022386550903, 0, 0, 0.41076022386550903, 36.57500320104282, 544.512388084905)"><path d="M 239 626.2000122070312 L 250.60000610351562 662 L 288.20001220703125 662 L 257.79998779296875 684.0999755859375 L 269.3999938964844 719.9000244140625 L 239 697.7999877929688 L 208.60000610351562 719.9000244140625 L 220.1999969482422 684.0999755859375 L 189.8000030517578 662 L 227.39999389648438 662 Z" class="st0" style="fill: rgb(51, 51, 51);" transform="matrix(1, 0, 0, 1, 0, 0)"/></g><g transform="matrix(0.41076022386550903, 0, 0, 0.41076022386550903, 136.05501418737094, 631.0968454823659)"><path d="M 239 626.2000122070312 L 250.60000610351562 662 L 288.20001220703125 662 L 257.79998779296875 684.0999755859375 L 269.3999938964844 719.9000244140625 L 239 697.7999877929688 L 208.60000610351562 719.9000244140625 L 220.1999969482422 684.0999755859375 L 189.8000030517578 662 L 227.39999389648438 662 Z" class="st0" style="fill: rgb(51, 51, 51);" transform="matrix(1, 0, 0, 1, 0, 0)"/></g><g transform="matrix(0.41076022386550903, 0, 0, 0.41076022386550903, 222.63947675746306, 137.38121854990823)"><path d="M 239 626.2000122070312 L 250.60000610351562 662 L 288.20001220703125 662 L 257.79998779296875 684.0999755859375 L 269.3999938964844 719.9000244140625 L 239 697.7999877929688 L 208.60000610351562 719.9000244140625 L 220.1999969482422 684.0999755859375 L 189.8000030517578 662 L 227.39999389648438 662 Z" class="st0" style="fill: rgb(51, 51, 51);" transform="matrix(1, 0, 0, 1, 0, 0)"/></g><g transform="matrix(0.41076022386550903, 0, 0, 0.41076022386550903, 237.377254467424, 76.58787595957622)"><path d="M 239 626.2000122070312 L 250.60000610351562 662 L 288.20001220703125 662 L 257.79998779296875 684.0999755859375 L 269.3999938964844 719.9000244140625 L 239 697.7999877929688 L 208.60000610351562 719.9000244140625 L 220.1999969482422 684.0999755859375 L 189.8000030517578 662 L 227.39999389648438 662 Z" class="st0" style="fill: rgb(51, 51, 51);" transform="matrix(1, 0, 0, 1, 0, 0)"/></g><g transform="matrix(0.41076022386550903, 0, 0, 0.41076022386550903, 336.8572654537521, 163.1723333570372)"><path d="M 239 626.2000122070312 L 250.60000610351562 662 L 288.20001220703125 662 L 257.79998779296875 684.0999755859375 L 269.3999938964844 719.9000244140625 L 239 697.7999877929688 L 208.60000610351562 719.9000244140625 L 220.1999969482422 684.0999755859375 L 189.8000030517578 662 L 227.39999389648438 662 Z" class="st0" style="fill: rgb(51, 51, 51);" transform="matrix(1, 0, 0, 1, 0, 0)"/></g><g transform="matrix(0.41076022386550903, 0, 0, 0.41076022386550903, 25.521670468446587, 389.7656994993966)"><path d="M 239 626.2000122070312 L 250.60000610351562 662 L 288.20001220703125 662 L 257.79998779296875 684.0999755859375 L 269.3999938964844 719.9000244140625 L 239 697.7999877929688 L 208.60000610351562 719.9000244140625 L 220.1999969482422 684.0999755859375 L 189.8000030517578 662 L 227.39999389648438 662 Z" class="st0" style="fill: rgb(51, 51, 51);" transform="matrix(1, 0, 0, 1, 0, 0)"/></g><g transform="matrix(0.41076022386550903, 0, 0, 0.41076022386550903, 40.259448178407524, 328.97235690906456)"><path d="M 239 626.2000122070312 L 250.60000610351562 662 L 288.20001220703125 662 L 257.79998779296875 684.0999755859375 L 269.3999938964844 719.9000244140625 L 239 697.7999877929688 L 208.60000610351562 719.9000244140625 L 220.1999969482422 684.0999755859375 L 189.8000030517578 662 L 227.39999389648438 662 Z" class="st0" style="fill: rgb(51, 51, 51);" transform="matrix(1, 0, 0, 1, 0, 0)"/></g><g transform="matrix(0.41076022386550903, 0, 0, 0.41076022386550903, 176.58390595040578, 325.2879217850313)"><path d="M 239 626.2000122070312 L 250.60000610351562 662 L 288.20001220703125 662 L 257.79998779296875 684.0999755859375 L 269.3999938964844 719.9000244140625 L 239 697.7999877929688 L 208.60000610351562 719.9000244140625 L 220.1999969482422 684.0999755859375 L 189.8000030517578 662 L 227.39999389648438 662 Z" class="st0" style="fill: rgb(51, 51, 51);" transform="matrix(1, 0, 0, 1, 0, 0)"/></g><g transform="matrix(0.41076022386550903, 0, 0, 0.41076022386550903, 307.38171123685333, 610.8323981412842)"><path d="M 239 626.2000122070312 L 250.60000610351562 662 L 288.20001220703125 662 L 257.79998779296875 684.0999755859375 L 269.3999938964844 719.9000244140625 L 239 697.7999877929688 L 208.60000610351562 719.9000244140625 L 220.1999969482422 684.0999755859375 L 189.8000030517578 662 L 227.39999389648438 662 Z" class="st0" style="fill: rgb(51, 51, 51);" transform="matrix(1, 0, 0, 1, 0, 0)"/></g><g transform="matrix(0.41076022386550903, 0, 0, 0.41076022386550903, 322.1194889468143, 550.0390555509522)"><path d="M 239 626.2000122070312 L 250.60000610351562 662 L 288.20001220703125 662 L 257.79998779296875 684.0999755859375 L 269.3999938964844 719.9000244140625 L 239 697.7999877929688 L 208.60000610351562 719.9000244140625 L 220.1999969482422 684.0999755859375 L 189.8000030517578 662 L 227.39999389648438 662 Z" class="st0" style="fill: rgb(51, 51, 51);" transform="matrix(1, 0, 0, 1, 0, 0)"/></g><g transform="matrix(0.41076022386550903, 0, 0, 0.41076022386550903, 421.5994999331424, 636.6235129484131)"><path d="M 239 626.2000122070312 L 250.60000610351562 662 L 288.20001220703125 662 L 257.79998779296875 684.0999755859375 L 269.3999938964844 719.9000244140625 L 239 697.7999877929688 L 208.60000610351562 719.9000244140625 L 220.1999969482422 684.0999755859375 L 189.8000030517578 662 L 227.39999389648438 662 Z" class="st0" style="fill: rgb(51, 51, 51);" transform="matrix(1, 0, 0, 1, 0, 0)"/></g></svg>