<?xml version="1.0" encoding="utf-8"?>
<svg id="master-artboard" viewBox="0 0 300 540" version="1.1" xmlns="http://www.w3.org/2000/svg" x="0px" y="0px" style="enable-background:new 0 0 850.4 1133.9;" width="300px" height="540px"><defs><radialGradient id="gradient-0" gradientUnits="objectBoundingBox" cx="0.5076521635055542" cy="0.5261010527610779" r="0.5" gradientTransform="matrix(0.08292993962949913, -0.033346307728384206, 1.259539649414169, 0.9667836067169789, -0.1962537417593613, 0.024812875754058328)">
                <stop offset="0" style="stop-color: #b0a8b9"/>
                <stop offset="1" style="stop-color: rgb(77, 30, 166); stop-opacity: 1;"/>
              </radialGradient><radialGradient id="gradient-1" gradientUnits="objectBoundingBox" cx="0.5" cy="0.5" r="0.5">
                <stop offset="0" style="stop-color: #77a68f"/>
                <stop offset="1" style="stop-color: #486f5c"/>
              </radialGradient><radialGradient id="gradient-2" gradientUnits="objectBoundingBox" cx="0.5" cy="0.5" r="0.5">
                <stop offset="0" style="stop-color: #fca211"/>
                <stop offset="1" style="stop-color: #a56602"/>
              </radialGradient></defs><rect id="ee-background" x="0" y="0" width="300" height="540" style="fill: rgb(252, 162, 17); fill-opacity: 1; pointer-events: none;"/><g transform="matrix(0.32822784781455994, 0, 0, 0.32822784781455994, 98.36122697550559, -106.12086222443644)"><g id="g-3" transform="matrix(1, 0, 0, 1, 0, 0)">
	<g id="g-4">
		<path class="st0" d="M103,620l16.5,30.2l33.5,6.5l-23.3,25.1l4.2,34.2L103,701.4L72.1,716l4.2-34.2L53,656.7l33.5-6.5L103,620" style="fill: rgb(42, 13, 71);"/>
	</g>
</g></g><g transform="matrix(0.32822784781455994, 0, 0, 0.32822784781455994, 60.43955415454309, -39.56862160352266)"><g id="g-1" transform="matrix(1, 0, 0, 1, 0, 0)">
	<g id="g-2">
		<path class="st0" d="M103,620l16.5,30.2l33.5,6.5l-23.3,25.1l4.2,34.2L103,701.4L72.1,716l4.2-34.2L53,656.7l33.5-6.5L103,620" style="fill: rgb(42, 13, 71);"/>
	</g>
</g></g><g transform="matrix(0.32822784781455994, 0, 0, 0.32822784781455994, 91.00752820510809, 83.97694018417761)"><g id="g-5" transform="matrix(1, 0, 0, 1, 0, 0)">
	<g id="g-6">
		<path class="st0" d="M103,620l16.5,30.2l33.5,6.5l-23.3,25.1l4.2,34.2L103,701.4L72.1,716l4.2-34.2L53,656.7l33.5-6.5L103,620" style="fill: rgb(42, 13, 71);"/>
	</g>
</g></g><g transform="matrix(0.32822784781455994, 0, 0, 0.32822784781455994, 196.72177179664538, 230.44848250980164)"><g id="g-7" transform="matrix(1, 0, 0, 1, 0, 0)">
	<g id="g-8">
		<path class="st0" d="M103,620l16.5,30.2l33.5,6.5l-23.3,25.1l4.2,34.2L103,701.4L72.1,716l4.2-34.2L53,656.7l33.5-6.5L103,620" style="fill: rgb(42, 13, 71);"/>
	</g>
</g></g><g transform="matrix(0.32822784781455994, 0, 0, 0.32822784781455994, 71.90254442350499, 236.8168104370027)"><g id="g-9" transform="matrix(1, 0, 0, 1, 0, 0)">
	<g id="g-10">
		<path class="st0" d="M103,620l16.5,30.2l33.5,6.5l-23.3,25.1l4.2,34.2L103,701.4L72.1,716l4.2-34.2L53,656.7l33.5-6.5L103,620" style="fill: rgb(42, 13, 71);"/>
	</g>
</g></g><g transform="matrix(0.32822784781455994, 0, 0, 0.32822784781455994, 201.8164341384063, -104.52556646097332)"><g id="g-11" transform="matrix(1, 0, 0, 1, 0, 0)">
	<g id="g-12">
		<path class="st0" d="M103,620l16.5,30.2l33.5,6.5l-23.3,25.1l4.2,34.2L103,701.4L72.1,716l4.2-34.2L53,656.7l33.5-6.5L103,620" style="fill: rgb(42, 13, 71);"/>
	</g>
</g></g><g transform="matrix(0.32822784781455994, 0, 0, 0.32822784781455994, 66.80788208174408, -166.93518014754355)"><g id="g-13" transform="matrix(1, 0, 0, 1, 0, 0)">
	<g id="g-14">
		<path class="st0" d="M103,620l16.5,30.2l33.5,6.5l-23.3,25.1l4.2,34.2L103,701.4L72.1,716l4.2-34.2L53,656.7l33.5-6.5L103,620" style="fill: rgb(42, 13, 71);"/>
	</g>
</g></g><g transform="matrix(0.32822784781455994, 0, 0, 0.32822784781455994, 28.597914518537777, 85.25060576961783)"><g id="g-15" transform="matrix(1, 0, 0, 1, 0, 0)">
	<g id="g-16">
		<path class="st0" d="M103,620l16.5,30.2l33.5,6.5l-23.3,25.1l4.2,34.2L103,701.4L72.1,716l4.2-34.2L53,656.7l33.5-6.5L103,620" style="fill: rgb(42, 13, 71);"/>
	</g>
</g></g><g transform="matrix(0.32822784781455994, 0, 0, 0.32822784781455994, 5.671933980614085, 196.05951170291598)"><g id="g-17" transform="matrix(1, 0, 0, 1, 0, 0)">
	<g id="g-18">
		<path class="st0" d="M103,620l16.5,30.2l33.5,6.5l-23.3,25.1l4.2,34.2L103,701.4L72.1,716l4.2-34.2L53,656.7l33.5-6.5L103,620" style="fill: rgb(42, 13, 71);"/>
	</g>
</g></g><g transform="matrix(0.32822784781455994, 0, 0, 0.32822784781455994, 1.8509372242934887, 281.39510592741)"><g id="g-19" transform="matrix(1, 0, 0, 1, 0, 0)">
	<g id="g-20">
		<path class="st0" d="M103,620l16.5,30.2l33.5,6.5l-23.3,25.1l4.2,34.2L103,701.4L72.1,716l4.2-34.2L53,656.7l33.5-6.5L103,620" style="fill: rgb(42, 13, 71);"/>
	</g>
</g></g><g transform="matrix(0.32822784781455994, 0, 0, 0.32822784781455994, 220.9214179200094, 86.52427135505803)"><g id="g-21" transform="matrix(1, 0, 0, 1, 0, 0)">
	<g id="g-22">
		<path class="st0" d="M103,620l16.5,30.2l33.5,6.5l-23.3,25.1l4.2,34.2L103,701.4L72.1,716l4.2-34.2L53,656.7l33.5-6.5L103,620" style="fill: rgb(42, 13, 71);"/>
	</g>
</g></g><g transform="matrix(0.32822784781455994, 0, 0, 0.32822784781455994, 150.8698107207979, 131.10256684546533)"><g id="g-23" transform="matrix(1, 0, 0, 1, 0, 0)">
	<g id="g-24">
		<path class="st0" d="M103,620l16.5,30.2l33.5,6.5l-23.3,25.1l4.2,34.2L103,701.4L72.1,716l4.2-34.2L53,656.7l33.5-6.5L103,620" style="fill: rgb(42, 13, 71);"/>
	</g>
</g></g><g transform="matrix(0.32822784781455994, 0, 0, 0.32822784781455994, 155.9644730625588, -20.463637821919537)"><g id="g-25" transform="matrix(1, 0, 0, 1, 0, 0)">
	<g id="g-26">
		<path class="st0" d="M103,620l16.5,30.2l33.5,6.5l-23.3,25.1l4.2,34.2L103,701.4L72.1,716l4.2-34.2L53,656.7l33.5-6.5L103,620" style="fill: rgb(42, 13, 71);"/>
	</g>
</g></g><g transform="matrix(0.32822784781455994, 0, 0, 0.32822784781455994, 98.64952171774928, 2.462342716004226)"><g id="g-27" transform="matrix(1, 0, 0, 1, 0, 0)">
	<g id="g-28">
		<path class="st0" d="M103,620l16.5,30.2l33.5,6.5l-23.3,25.1l4.2,34.2L103,701.4L72.1,716l4.2-34.2L53,656.7l33.5-6.5L103,620" style="fill: rgb(42, 13, 71);"/>
	</g>
</g></g><g transform="matrix(0.32822784781455994, 0, 0, 0.32822784781455994, 9.492930736934682, -0.08498845487618567)"><g id="g-29" transform="matrix(1, 0, 0, 1, 0, 0)">
	<g id="g-30">
		<path class="st0" d="M103,620l16.5,30.2l33.5,6.5l-23.3,25.1l4.2,34.2L103,701.4L72.1,716l4.2-34.2L53,656.7l33.5-6.5L103,620" style="fill: rgb(42, 13, 71);"/>
	</g>
</g></g><g transform="matrix(0.32822784781455994, 0, 0, 0.32822784781455994, 4.398268395173886, -183.4928327582663)"><g id="g-31" transform="matrix(1, 0, 0, 1, 0, 0)">
	<g id="g-32">
		<path class="st0" d="M103,620l16.5,30.2l33.5,6.5l-23.3,25.1l4.2,34.2L103,701.4L72.1,716l4.2-34.2L53,656.7l33.5-6.5L103,620" style="fill: rgb(42, 13, 71);"/>
	</g>
</g></g><g transform="matrix(0.32822784781455994, 0, 0, 0.32822784781455994, 8.219265151494483, -91.78891060657124)"><g id="g-33" transform="matrix(1, 0, 0, 1, 0, 0)">
	<g id="g-34">
		<path class="st0" d="M103,620l16.5,30.2l33.5,6.5l-23.3,25.1l4.2,34.2L103,701.4L72.1,716l4.2-34.2L53,656.7l33.5-6.5L103,620" style="fill: rgb(42, 13, 71);"/>
	</g>
</g></g><g transform="matrix(0.32822784781455994, 0, 0, 0.32822784781455994, 166.1537977460804, -179.67183600194565)"><g id="g-35" transform="matrix(1, 0, 0, 1, 0, 0)">
	<g id="g-36">
		<path class="st0" d="M103,620l16.5,30.2l33.5,6.5l-23.3,25.1l4.2,34.2L103,701.4L72.1,716l4.2-34.2L53,656.7l33.5-6.5L103,620" style="fill: rgb(42, 13, 71);"/>
	</g>
</g></g><g transform="matrix(0.32822784781455994, 0, 0, 0.32822784781455994, 229.8370770180909, -146.55653078050022)"><g id="g-37" transform="matrix(1, 0, 0, 1, 0, 0)">
	<g id="g-38">
		<path class="st0" d="M103,620l16.5,30.2l33.5,6.5l-23.3,25.1l4.2,34.2L103,701.4L72.1,716l4.2-34.2L53,656.7l33.5-6.5L103,620" style="fill: rgb(42, 13, 71);"/>
	</g>
</g></g><g transform="matrix(0.32822784781455994, 0, 0, 0.32822784781455994, 250.2157263851342, -52.305277457924745)"><g id="g-39" transform="matrix(1, 0, 0, 1, 0, 0)">
	<g id="g-40">
		<path class="st0" d="M103,620l16.5,30.2l33.5,6.5l-23.3,25.1l4.2,34.2L103,701.4L72.1,716l4.2-34.2L53,656.7l33.5-6.5L103,620" style="fill: rgb(42, 13, 71);"/>
	</g>
</g></g><g transform="matrix(0.32822784781455994, 0, 0, 0.32822784781455994, 153.41714189167828, 48.314303791851756)"><g id="g-41" transform="matrix(1, 0, 0, 1, 0, 0)">
	<g id="g-42">
		<path class="st0" d="M103,620l16.5,30.2l33.5,6.5l-23.3,25.1l4.2,34.2L103,701.4L72.1,716l4.2-34.2L53,656.7l33.5-6.5L103,620" style="fill: rgb(42, 13, 71);"/>
	</g>
</g></g><g transform="matrix(0.32822784781455994, 0, 0, 0.32822784781455994, 231.1107426035311, 176.9545279213129)"><g id="g-43" transform="matrix(1, 0, 0, 1, 0, 0)">
	<g id="g-44">
		<path class="st0" d="M103,620l16.5,30.2l33.5,6.5l-23.3,25.1l4.2,34.2L103,701.4L72.1,716l4.2-34.2L53,656.7l33.5-6.5L103,620" style="fill: rgb(42, 13, 71);"/>
	</g>
</g></g><g transform="matrix(0.32822784781455994, 0, 0, 0.32822784781455994, 102.47051847406999, 184.59652143395414)"><g id="g-45" transform="matrix(1, 0, 0, 1, 0, 0)">
	<g id="g-46">
		<path class="st0" d="M103,620l16.5,30.2l33.5,6.5l-23.3,25.1l4.2,34.2L103,701.4L72.1,716l4.2-34.2L53,656.7l33.5-6.5L103,620" style="fill: rgb(42, 13, 71);"/>
	</g>
</g></g><g transform="matrix(0.32822784781455994, 0, 0, 0.32822784781455994, 9.492930736934682, 133.64989801634576)"><g id="g-47" transform="matrix(1, 0, 0, 1, 0, 0)">
	<g id="g-48">
		<path class="st0" d="M103,620l16.5,30.2l33.5,6.5l-23.3,25.1l4.2,34.2L103,701.4L72.1,716l4.2-34.2L53,656.7l33.5-6.5L103,620" style="fill: rgb(42, 13, 71);"/>
	</g>
</g></g><g transform="matrix(0.32822784781455994, 0, 0, 0.32822784781455994, 140.68048603727618, 257.19545980404604)"><g id="g-49" transform="matrix(1, 0, 0, 1, 0, 0)">
	<g id="g-50">
		<path class="st0" d="M103,620l16.5,30.2l33.5,6.5l-23.3,25.1l4.2,34.2L103,701.4L72.1,716l4.2-34.2L53,656.7l33.5-6.5L103,620" style="fill: rgb(42, 13, 71);"/>
	</g>
</g></g><g transform="matrix(0.32822784781455994, 0, 0, 0.32822784781455994, 231.1107426035311, 291.5844306109317)"><g id="g-51" transform="matrix(1, 0, 0, 1, 0, 0)">
	<g id="g-52">
		<path class="st0" d="M103,620l16.5,30.2l33.5,6.5l-23.3,25.1l4.2,34.2L103,701.4L72.1,716l4.2-34.2L53,656.7l33.5-6.5L103,620" style="fill: rgb(42, 13, 71);"/>
	</g>
</g></g><g transform="matrix(0.32822784781455994, 0, 0, 0.32822784781455994, 80.81820352158638, 295.4054273672523)"><g id="g-53" transform="matrix(1, 0, 0, 1, 0, 0)">
	<g id="g-54">
		<path class="st0" d="M103,620l16.5,30.2l33.5,6.5l-23.3,25.1l4.2,34.2L103,701.4L72.1,716l4.2-34.2L53,656.7l33.5-6.5L103,620" style="fill: rgb(42, 13, 71);"/>
	</g>
</g></g></svg>