<svg xmlns="http://www.w3.org/2000/svg" xmlns:xlink="http://www.w3.org/1999/xlink" xml:space="preserve" version="1.1" style="shape-rendering:geometricPrecision;text-rendering:geometricPrecision;image-rendering:optimizeQuality;" viewBox="0 0 6764 13547.5" x="0px" y="0px" fill-rule="evenodd" clip-rule="evenodd"><defs><style type="text/css">
   
    .fil0 {fill:black}
   
  </style></defs><g><path class="fil0" d="M2468 1256l275 853 896 -2 -726 525 278 851 -723 -528 -724 528 278 -851 -725 -525 896 2 275 -853zm0 451l-175 540 -567 -1 460 333 -177 540 459 -335 458 335 -176 -540 460 -333 -568 1 -174 -540z"/><path class="fil0" d="M1001 4106l235 729 766 -1 -620 449 238 728 -619 -452 -619 452 238 -728 -620 -449 766 1 235 -729zm0 451l-134 417 -438 -1 355 257 -137 416 354 -258 354 258 -136 -416 354 -257 -437 1 -135 -417z"/><path class="fil0" d="M2422 6074l205 636 669 -1 -542 392 208 635 -540 -394 -540 394 207 -635 -541 -392 668 1 206 -636zm0 451l-105 324 -340 -1 276 200 -106 324 275 -201 275 201 -106 -324 276 -200 -341 1 -104 -324z"/><path class="fil0" d="M3813 7688l181 561 589 -1 -477 345 183 560 -476 -347 -476 347 183 -560 -477 -345 589 1 181 -561zm0 451l-80 248 -262 0 212 153 -81 249 211 -154 211 154 -82 -249 212 -153 -261 0 -80 -248z"/><path class="fil0" d="M2973 8980l138 426 447 -1 -362 262 139 426 -362 -264 -362 264 140 -426 -363 -262 448 1 137 -426zm0 450l-37 114 -119 0 97 70 -38 114 97 -70 97 70 -38 -114 97 -70 -119 0 -37 -114z"/><polygon class="fil0" points="2201,10065 2281,10311 2539,10310 2330,10462 2410,10707 2201,10555 1992,10707 2073,10462 1863,10310 2122,10311 "/><polygon class="fil0" points="1445,10407 1498,10572 1672,10571 1531,10673 1585,10838 1445,10736 1305,10838 1359,10673 1218,10571 1392,10572 "/><path class="fil0" d="M5336 0l336 1040 1092 -3 -885 641 340 1038 -883 -644 -882 644 339 -1038 -885 -641 1093 3 335 -1040zm0 451l-235 727 -764 -1 619 448 -237 727 617 -451 618 451 -238 -727 619 -448 -764 1 -235 -727z"/></g><text x="0" y="10853" fill="#000000" font-size="5px" font-weight="bold" font-family="'Helvetica Neue', Helvetica, Arial-Unicode, Arial, Sans-serif">Created by sandi</text><text x="0" y="10858" fill="#000000" font-size="5px" font-weight="bold" font-family="'Helvetica Neue', Helvetica, Arial-Unicode, Arial, Sans-serif">from the Noun Project</text></svg>