<?xml version="1.0" encoding="utf-8"?>
<svg id="master-artboard" viewBox="0 0 1615.4091796875 943.7468872070312" version="1.1" xmlns="http://www.w3.org/2000/svg" x="0px" y="0px" style="enable-background:new 0 0 850.4 1133.9;" width="1615.4091796875px" height="943.7468872070312px"><rect id="ee-background" x="0" y="0" width="1615.4091796875" height="943.7468872070312" style="fill: rgb(42, 13, 71); fill-opacity: 0; pointer-events: none;"/><g transform="matrix(0.7900592684745789, 0, 0, 0.7900592684745789, 30.68524932861328, -222.48887634277344)"><g transform="matrix(1, 0, 0, 1, -59.44769801001053, -5.684341886080802e-14)"><path class="st1" d="M758,754.6c-79.7,0-144.3-64.6-144.3-144.3c0-27.4,7.6-53,20.9-74.8c-56.9,19.3-97.9,73.2-97.9,136.6&#10;&#9;&#9;&#9;c0,79.7,64.6,144.3,144.3,144.3c52.3,0,98.1-27.8,123.4-69.5C789.8,751.9,774.2,754.6,758,754.6z" style="fill: rgb(229, 218, 218); fill-opacity: 0.61;" transform="matrix(0.3704250026323856, 0, 0, 0.3704250026323856, 271.1446177568153, 308.53335563450787)"/></g></g><g transform="matrix(0.2004222422838211, 0, 0, 0.2004222422838211, 512.5990600585938, 161.84600830078125)"><path d="M 239 626.2000122070312 L 250.60000610351562 662 L 288.20001220703125 662 L 257.79998779296875 684.0999755859375 L 269.3999938964844 719.9000244140625 L 239 697.7999877929688 L 208.60000610351562 719.9000244140625 L 220.1999969482422 684.0999755859375 L 189.8000030517578 662 L 227.39999389648438 662 Z" class="st0" style="fill: rgb(229, 218, 218); fill-opacity: 0.6;" transform="matrix(1, 0, 0, 1, 0, 0)"/></g><g transform="matrix(-0.08455897122621536, 0.7855203151702881, -0.7855203151702881, -0.08455897122621536, 1938.2177124023438, 360.1822509765625)"><g transform="matrix(1, 0, 0, 1, -59.44769801001053, -5.684341886080802e-14)"><path class="st1" d="M758,754.6c-79.7,0-144.3-64.6-144.3-144.3c0-27.4,7.6-53,20.9-74.8c-56.9,19.3-97.9,73.2-97.9,136.6&#10;&#9;&#9;&#9;c0,79.7,64.6,144.3,144.3,144.3c52.3,0,98.1-27.8,123.4-69.5C789.8,751.9,774.2,754.6,758,754.6z" style="fill: rgb(229, 218, 218); fill-opacity: 0.61;" transform="matrix(0.3704250026323856, 0, 0, 0.3704250026323856, 271.1446177568153, 308.53335563450787)"/></g></g><g transform="matrix(-0.5812780452307964, 0.5350677008808998, -0.5350677008808998, -0.5812780452307964, 1587.2953810377805, 313.56588339632924)"><g transform="matrix(1, 0, 0, 1, -59.44769801001053, -5.684341886080802e-14)"><path class="st1" d="M758,754.6c-79.7,0-144.3-64.6-144.3-144.3c0-27.4,7.6-53,20.9-74.8c-56.9,19.3-97.9,73.2-97.9,136.6&#10;&#9;&#9;&#9;c0,79.7,64.6,144.3,144.3,144.3c52.3,0,98.1-27.8,123.4-69.5C789.8,751.9,774.2,754.6,758,754.6z" style="fill: rgb(229, 218, 218); fill-opacity: 0.61;" transform="matrix(0.3704250026323856, 0, 0, 0.3704250026323856, 271.1446177568153, 308.53335563450787)"/></g></g><g transform="matrix(0.7824904322624207, -0.10903800278902054, 0.10903800278902054, 0.7824904322624207, 787.8829345703125, 506.8797607421875)"><g transform="matrix(1, 0, 0, 1, -59.44769801001053, -5.684341886080802e-14)"><path class="st1" d="M758,754.6c-79.7,0-144.3-64.6-144.3-144.3c0-27.4,7.6-53,20.9-74.8c-56.9,19.3-97.9,73.2-97.9,136.6&#10;&#9;&#9;&#9;c0,79.7,64.6,144.3,144.3,144.3c52.3,0,98.1-27.8,123.4-69.5C789.8,751.9,774.2,754.6,758,754.6z" style="fill: rgb(229, 218, 218); fill-opacity: 0.61;" transform="matrix(0.3704250026323856, 0, 0, 0.3704250026323856, 271.1446177568153, 308.53335563450787)"/></g></g><g transform="matrix(0.664005518594367, 0.428122700737163, -0.428122700737163, 0.664005518594367, 779.2170607606283, -140.97730341275312)"><g transform="matrix(1, 0, 0, 1, -59.44769801001053, -5.684341886080802e-14)"><path class="st1" d="M758,754.6c-79.7,0-144.3-64.6-144.3-144.3c0-27.4,7.6-53,20.9-74.8c-56.9,19.3-97.9,73.2-97.9,136.6&#10;&#9;&#9;&#9;c0,79.7,64.6,144.3,144.3,144.3c52.3,0,98.1-27.8,123.4-69.5C789.8,751.9,774.2,754.6,758,754.6z" style="fill: rgb(229, 218, 218); fill-opacity: 0.61;" transform="matrix(0.3704250026323856, 0, 0, 0.3704250026323856, 271.1446177568153, 308.53335563450787)"/></g></g><g transform="matrix(-0.6820068359375, 0.3988199234008789, -0.3988199234008789, -0.6820068359375, 619.3750610351562, 1100.2152099609375)"><g transform="matrix(1, 0, 0, 1, -59.44769801001053, -5.684341886080802e-14)"><path class="st1" d="M758,754.6c-79.7,0-144.3-64.6-144.3-144.3c0-27.4,7.6-53,20.9-74.8c-56.9,19.3-97.9,73.2-97.9,136.6&#10;&#9;&#9;&#9;c0,79.7,64.6,144.3,144.3,144.3c52.3,0,98.1-27.8,123.4-69.5C789.8,751.9,774.2,754.6,758,754.6z" style="fill: rgb(229, 218, 218); fill-opacity: 0.61;" transform="matrix(0.3704250026323856, 0, 0, 0.3704250026323856, 271.1446177568153, 308.53335563450787)"/></g></g><g transform="matrix(-0.6864265203475952, 0.39116862416267395, -0.39116862416267395, -0.6864265203475952, 707.9848022460938, 588.5516357421875)"><g transform="matrix(1, 0, 0, 1, -59.44769801001053, -5.684341886080802e-14)"><path class="st1" d="M758,754.6c-79.7,0-144.3-64.6-144.3-144.3c0-27.4,7.6-53,20.9-74.8c-56.9,19.3-97.9,73.2-97.9,136.6&#10;&#9;&#9;&#9;c0,79.7,64.6,144.3,144.3,144.3c52.3,0,98.1-27.8,123.4-69.5C789.8,751.9,774.2,754.6,758,754.6z" style="fill: rgb(229, 218, 218); fill-opacity: 0.61;" transform="matrix(0.3704250026323856, 0, 0, 0.3704250026323856, 271.1446177568153, 308.53335563450787)"/></g></g><g transform="matrix(0.6981626749038696, 0.36981815099716187, -0.36981815099716187, 0.6981626749038696, 1335.1893920898438, -429.04217529296875)"><g transform="matrix(1, 0, 0, 1, -59.44769801001053, -5.684341886080802e-14)"><path class="st1" d="M758,754.6c-79.7,0-144.3-64.6-144.3-144.3c0-27.4,7.6-53,20.9-74.8c-56.9,19.3-97.9,73.2-97.9,136.6&#10;&#9;&#9;&#9;c0,79.7,64.6,144.3,144.3,144.3c52.3,0,98.1-27.8,123.4-69.5C789.8,751.9,774.2,754.6,758,754.6z" style="fill: rgb(229, 218, 218); fill-opacity: 0.61;" transform="matrix(0.3704250026323856, 0, 0, 0.3704250026323856, 271.1446177568153, 308.53335563450787)"/></g></g><g transform="matrix(-0.34168952799518687, 0.17962641873854107, -0.17962641873854107, -0.34168952799518687, 1045.9369128764956, 219.80686966234344)"><g transform="matrix(1, 0, 0, 1, -59.44769801001053, -5.684341886080802e-14)"><path class="st1" d="M758,754.6c-79.7,0-144.3-64.6-144.3-144.3c0-27.4,7.6-53,20.9-74.8c-56.9,19.3-97.9,73.2-97.9,136.6&#10;&#9;&#9;&#9;c0,79.7,64.6,144.3,144.3,144.3c52.3,0,98.1-27.8,123.4-69.5C789.8,751.9,774.2,754.6,758,754.6z" style="fill: rgb(229, 218, 218); fill-opacity: 0.61;" transform="matrix(0.3704250026323856, 0, 0, 0.3704250026323856, 271.1446177568153, 308.53335563450787)"/></g></g><g transform="matrix(-0.049945250153541565, -0.7884770631790161, 0.7884770631790161, -0.049945250153541565, 655.8975219726562, 1145.298583984375)"><g transform="matrix(1, 0, 0, 1, -59.44769801001053, -5.684341886080802e-14)"><path class="st1" d="M758,754.6c-79.7,0-144.3-64.6-144.3-144.3c0-27.4,7.6-53,20.9-74.8c-56.9,19.3-97.9,73.2-97.9,136.6&#10;&#9;&#9;&#9;c0,79.7,64.6,144.3,144.3,144.3c52.3,0,98.1-27.8,123.4-69.5C789.8,751.9,774.2,754.6,758,754.6z" style="fill: rgb(229, 218, 218); fill-opacity: 0.61;" transform="matrix(0.3704250026323856, 0, 0, 0.3704250026323856, 271.1446177568153, 308.53335563450787)"/></g></g><g transform="matrix(-0.035025518387556076, 0.3253736197948456, -0.3253736197948456, -0.035025518387556076, 964.1827392578125, 367.9461364746094)"><g transform="matrix(1, 0, 0, 1, -59.44769801001053, -5.684341886080802e-14)"><path class="st1" d="M758,754.6c-79.7,0-144.3-64.6-144.3-144.3c0-27.4,7.6-53,20.9-74.8c-56.9,19.3-97.9,73.2-97.9,136.6&#10;&#9;&#9;&#9;c0,79.7,64.6,144.3,144.3,144.3c52.3,0,98.1-27.8,123.4-69.5C789.8,751.9,774.2,754.6,758,754.6z" style="fill: rgb(229, 218, 218); fill-opacity: 0.61;" transform="matrix(0.3704250026323856, 0, 0, 0.3704250026323856, 271.1446177568153, 308.53335563450787)"/></g></g><g transform="matrix(-0.5572695732116699, -0.5600367188453674, 0.5600367188453674, -0.5572695732116699, 114.80117405267958, 588.1469043917991)"><g transform="matrix(1, 0, 0, 1, -59.44769801001053, -5.684341886080802e-14)"><path class="st1" d="M758,754.6c-79.7,0-144.3-64.6-144.3-144.3c0-27.4,7.6-53,20.9-74.8c-56.9,19.3-97.9,73.2-97.9,136.6&#10;&#9;&#9;&#9;c0,79.7,64.6,144.3,144.3,144.3c52.3,0,98.1-27.8,123.4-69.5C789.8,751.9,774.2,754.6,758,754.6z" style="fill: rgb(229, 218, 218); fill-opacity: 0.61;" transform="matrix(0.3704250026323856, 0, 0, 0.3704250026323856, 271.1446177568153, 308.53335563450787)"/></g></g><g transform="matrix(0.7824904322624207, -0.10903804004192352, 0.10903804004192352, 0.7824904322624207, 804.7855834960938, 276.25001525878906)"><g transform="matrix(1, 0, 0, 1, -59.44769801001053, -5.684341886080802e-14)"><path class="st1" d="M758,754.6c-79.7,0-144.3-64.6-144.3-144.3c0-27.4,7.6-53,20.9-74.8c-56.9,19.3-97.9,73.2-97.9,136.6&#10;&#9;&#9;&#9;c0,79.7,64.6,144.3,144.3,144.3c52.3,0,98.1-27.8,123.4-69.5C789.8,751.9,774.2,754.6,758,754.6z" style="fill: rgb(229, 218, 218); fill-opacity: 0.61;" transform="matrix(0.3704250026323856, 0, 0, 0.3704250026323856, 271.1446177568153, 308.53335563450787)"/></g></g><g transform="matrix(-0.027354957846354316, -0.431847943474255, 0.431847943474255, -0.027354957846354316, 844.3005664640209, 756.8202538912501)"><g transform="matrix(1, 0, 0, 1, -59.44769801001053, -5.684341886080802e-14)"><path class="st1" d="M758,754.6c-79.7,0-144.3-64.6-144.3-144.3c0-27.4,7.6-53,20.9-74.8c-56.9,19.3-97.9,73.2-97.9,136.6&#10;&#9;&#9;&#9;c0,79.7,64.6,144.3,144.3,144.3c52.3,0,98.1-27.8,123.4-69.5C789.8,751.9,774.2,754.6,758,754.6z" style="fill: rgb(229, 218, 218); fill-opacity: 0.61;" transform="matrix(0.3704250026323856, 0, 0, 0.3704250026323856, 271.1446177568153, 308.53335563450787)"/></g></g><g transform="matrix(0.738682802005344, 0.2802597700591468, -0.2802597700591468, 0.738682802005344, 626.2908411930307, -294.6058684114737)"><g transform="matrix(1, 0, 0, 1, -59.44769801001053, -5.684341886080802e-14)"><path class="st1" d="M758,754.6c-79.7,0-144.3-64.6-144.3-144.3c0-27.4,7.6-53,20.9-74.8c-56.9,19.3-97.9,73.2-97.9,136.6&#10;&#9;&#9;&#9;c0,79.7,64.6,144.3,144.3,144.3c52.3,0,98.1-27.8,123.4-69.5C789.8,751.9,774.2,754.6,758,754.6z" style="fill: rgb(229, 218, 218); fill-opacity: 0.61;" transform="matrix(0.3704250026323856, 0, 0, 0.3704250026323856, 271.1446177568153, 308.53335563450787)"/></g></g><g transform="matrix(0.5031359791755676, -0.07011071592569351, 0.07011071592569351, 0.5031359791755676, 624.2028198242188, 631.6627807617188)"><g transform="matrix(1, 0, 0, 1, -59.44769801001053, -5.684341886080802e-14)"><path class="st1" d="M758,754.6c-79.7,0-144.3-64.6-144.3-144.3c0-27.4,7.6-53,20.9-74.8c-56.9,19.3-97.9,73.2-97.9,136.6&#10;&#9;&#9;&#9;c0,79.7,64.6,144.3,144.3,144.3c52.3,0,98.1-27.8,123.4-69.5C789.8,751.9,774.2,754.6,758,754.6z" style="fill: rgb(229, 218, 218); fill-opacity: 0.61;" transform="matrix(0.3704250026323856, 0, 0, 0.3704250026323856, 271.1446177568153, 308.53335563450787)"/></g></g><g transform="matrix(-0.08455901592969894, 0.7855203151702881, -0.7855203151702881, -0.08455901592969894, 1093.0737915039062, 304.92022705078125)"><g transform="matrix(1, 0, 0, 1, -59.44769801001053, -5.684341886080802e-14)"><path class="st1" d="M758,754.6c-79.7,0-144.3-64.6-144.3-144.3c0-27.4,7.6-53,20.9-74.8c-56.9,19.3-97.9,73.2-97.9,136.6&#10;&#9;&#9;&#9;c0,79.7,64.6,144.3,144.3,144.3c52.3,0,98.1-27.8,123.4-69.5C789.8,751.9,774.2,754.6,758,754.6z" style="fill: rgb(229, 218, 218); fill-opacity: 0.61;" transform="matrix(0.3704250026323856, 0, 0, 0.3704250026323856, 271.1446177568153, 308.53335563450787)"/></g></g><g transform="matrix(-0.049945250153541565, -0.7884769439697266, 0.7884769439697266, -0.049945250153541565, 353.7586975097656, 1115.3902587890625)"><g transform="matrix(1, 0, 0, 1, -59.44769801001053, -5.684341886080802e-14)"><path class="st1" d="M758,754.6c-79.7,0-144.3-64.6-144.3-144.3c0-27.4,7.6-53,20.9-74.8c-56.9,19.3-97.9,73.2-97.9,136.6&#10;&#9;&#9;&#9;c0,79.7,64.6,144.3,144.3,144.3c52.3,0,98.1-27.8,123.4-69.5C789.8,751.9,774.2,754.6,758,754.6z" style="fill: rgb(229, 218, 218); fill-opacity: 0.61;" transform="matrix(0.3704250026323856, 0, 0, 0.3704250026323856, 271.1446177568153, 308.53335563450787)"/></g></g><g transform="matrix(0.6788788160291086, 0.2030621912005964, -0.2030621912005964, 0.6788788160291086, 270.7848270965866, -23.119252113674207)"><g transform="matrix(1, 0, 0, 1, -59.44769801001053, -5.684341886080802e-14)"><path class="st1" d="M758,754.6c-79.7,0-144.3-64.6-144.3-144.3c0-27.4,7.6-53,20.9-74.8c-56.9,19.3-97.9,73.2-97.9,136.6&#10;&#9;&#9;&#9;c0,79.7,64.6,144.3,144.3,144.3c52.3,0,98.1-27.8,123.4-69.5C789.8,751.9,774.2,754.6,758,754.6z" style="fill: rgb(229, 218, 218); fill-opacity: 0.61;" transform="matrix(0.3704250026323856, 0, 0, 0.3704250026323856, 271.1446177568153, 308.53335563450787)"/></g></g><g transform="matrix(0.7824904322624207, -0.10903802514076233, 0.10903802514076233, 0.7824904322624207, -72.05040740966797, 424.15008544921875)"><g transform="matrix(1, 0, 0, 1, -59.44769801001053, -5.684341886080802e-14)"><path class="st1" d="M758,754.6c-79.7,0-144.3-64.6-144.3-144.3c0-27.4,7.6-53,20.9-74.8c-56.9,19.3-97.9,73.2-97.9,136.6&#10;&#9;&#9;&#9;c0,79.7,64.6,144.3,144.3,144.3c52.3,0,98.1-27.8,123.4-69.5C789.8,751.9,774.2,754.6,758,754.6z" style="fill: rgb(229, 218, 218); fill-opacity: 0.61;" transform="matrix(0.3704250026323856, 0, 0, 0.3704250026323856, 271.1446177568153, 308.53335563450787)"/></g></g><g transform="matrix(-0.046155285090208054, 0.42876455187797546, -0.42876455187797546, -0.046155285090208054, 338.676513671875, 379.0817565917969)"><g transform="matrix(1, 0, 0, 1, -59.44769801001053, -5.684341886080802e-14)"><path class="st1" d="M758,754.6c-79.7,0-144.3-64.6-144.3-144.3c0-27.4,7.6-53,20.9-74.8c-56.9,19.3-97.9,73.2-97.9,136.6&#10;&#9;&#9;&#9;c0,79.7,64.6,144.3,144.3,144.3c52.3,0,98.1-27.8,123.4-69.5C789.8,751.9,774.2,754.6,758,754.6z" style="fill: rgb(229, 218, 218); fill-opacity: 0.61;" transform="matrix(0.3704250026323856, 0, 0, 0.3704250026323856, 271.1446177568153, 308.53335563450787)"/></g></g><g transform="matrix(-0.049945250153541565, -0.7884769439697266, 0.7884769439697266, -0.049945250153541565, -204.0357666015625, 1062.56884765625)"><g transform="matrix(1, 0, 0, 1, -59.44769801001053, -5.684341886080802e-14)"><path class="st1" d="M758,754.6c-79.7,0-144.3-64.6-144.3-144.3c0-27.4,7.6-53,20.9-74.8c-56.9,19.3-97.9,73.2-97.9,136.6&#10;&#9;&#9;&#9;c0,79.7,64.6,144.3,144.3,144.3c52.3,0,98.1-27.8,123.4-69.5C789.8,751.9,774.2,754.6,758,754.6z" style="fill: rgb(229, 218, 218); fill-opacity: 0.61;" transform="matrix(0.3704250026323856, 0, 0, 0.3704250026323856, 271.1446177568153, 308.53335563450787)"/></g></g><g transform="matrix(-0.08455898612737656, 0.7855203151702881, -0.7855203151702881, -0.08455898612737656, 888.127197265625, -254.9876708984375)"><g transform="matrix(1, 0, 0, 1, -59.44769801001053, -5.684341886080802e-14)"><path class="st1" d="M758,754.6c-79.7,0-144.3-64.6-144.3-144.3c0-27.4,7.6-53,20.9-74.8c-56.9,19.3-97.9,73.2-97.9,136.6&#10;&#9;&#9;&#9;c0,79.7,64.6,144.3,144.3,144.3c52.3,0,98.1-27.8,123.4-69.5C789.8,751.9,774.2,754.6,758,754.6z" style="fill: rgb(229, 218, 218); fill-opacity: 0.61;" transform="matrix(0.3704250026323856, 0, 0, 0.3704250026323856, 271.1446177568153, 308.53335563450787)"/></g></g><g transform="matrix(-0.05693363770842552, 0.5288913249969482, -0.5288913249969482, -0.05693363770842552, 368.63836669921875, -73.45806121826172)"><g transform="matrix(1, 0, 0, 1, -59.44769801001053, -5.684341886080802e-14)"><path class="st1" d="M758,754.6c-79.7,0-144.3-64.6-144.3-144.3c0-27.4,7.6-53,20.9-74.8c-56.9,19.3-97.9,73.2-97.9,136.6&#10;&#9;&#9;&#9;c0,79.7,64.6,144.3,144.3,144.3c52.3,0,98.1-27.8,123.4-69.5C789.8,751.9,774.2,754.6,758,754.6z" style="fill: rgb(229, 218, 218); fill-opacity: 0.61;" transform="matrix(0.3704250026323856, 0, 0, 0.3704250026323856, 271.1446177568153, 308.53335563450787)"/></g></g><g transform="matrix(-0.031215563416481018, -0.4927946627140045, 0.4927946627140045, -0.031215563416481018, -59.47578048706055, 462.9009704589844)"><g transform="matrix(1, 0, 0, 1, -59.44769801001053, -5.684341886080802e-14)"><path class="st1" d="M758,754.6c-79.7,0-144.3-64.6-144.3-144.3c0-27.4,7.6-53,20.9-74.8c-56.9,19.3-97.9,73.2-97.9,136.6&#10;&#9;&#9;&#9;c0,79.7,64.6,144.3,144.3,144.3c52.3,0,98.1-27.8,123.4-69.5C789.8,751.9,774.2,754.6,758,754.6z" style="fill: rgb(229, 218, 218); fill-opacity: 0.61;" transform="matrix(0.3704250026323856, 0, 0, 0.3704250026323856, 271.1446177568153, 308.53335563450787)"/></g></g><g transform="matrix(-0.02871723659336567, -0.45335400104522705, 0.45335400104522705, -0.02871723659336567, 367.0169372558594, 1186.7978515625)"><g transform="matrix(1, 0, 0, 1, -59.44769801001053, -5.684341886080802e-14)"><path class="st1" d="M758,754.6c-79.7,0-144.3-64.6-144.3-144.3c0-27.4,7.6-53,20.9-74.8c-56.9,19.3-97.9,73.2-97.9,136.6&#10;&#9;&#9;&#9;c0,79.7,64.6,144.3,144.3,144.3c52.3,0,98.1-27.8,123.4-69.5C789.8,751.9,774.2,754.6,758,754.6z" style="fill: rgb(229, 218, 218); fill-opacity: 0.61;" transform="matrix(0.3704250026323856, 0, 0, 0.3704250026323856, 271.1446177568153, 308.53335563450787)"/></g></g><g transform="matrix(-0.08455900847911835, 0.7855203151702881, -0.7855203151702881, -0.08455900847911835, 820.5153198242188, 353.51593017578125)"><g transform="matrix(1, 0, 0, 1, -59.44769801001053, -5.684341886080802e-14)"><path class="st1" d="M758,754.6c-79.7,0-144.3-64.6-144.3-144.3c0-27.4,7.6-53,20.9-74.8c-56.9,19.3-97.9,73.2-97.9,136.6&#10;&#9;&#9;&#9;c0,79.7,64.6,144.3,144.3,144.3c52.3,0,98.1-27.8,123.4-69.5C789.8,751.9,774.2,754.6,758,754.6z" style="fill: rgb(229, 218, 218); fill-opacity: 0.61;" transform="matrix(0.3704250026323856, 0, 0, 0.3704250026323856, 271.1446177568153, 308.53335563450787)"/></g></g><g transform="matrix(-0.056445080786943436, 0.5243529677391052, -0.5243529677391052, -0.056445080786943436, 1876.6934204101562, 4.887531280517578)"><g transform="matrix(1, 0, 0, 1, -59.44769801001053, -5.684341886080802e-14)"><path class="st1" d="M758,754.6c-79.7,0-144.3-64.6-144.3-144.3c0-27.4,7.6-53,20.9-74.8c-56.9,19.3-97.9,73.2-97.9,136.6&#10;&#9;&#9;&#9;c0,79.7,64.6,144.3,144.3,144.3c52.3,0,98.1-27.8,123.4-69.5C789.8,751.9,774.2,754.6,758,754.6z" style="fill: rgb(229, 218, 218); fill-opacity: 0.61;" transform="matrix(0.3704250026323856, 0, 0, 0.3704250026323856, 271.1446177568153, 308.53335563450787)"/></g></g><g transform="matrix(0.7824904322624205, -0.10903804004192351, 0.10903804004192351, 0.7824904322624205, 1026.6357277289108, 119.89854016340965)"><g transform="matrix(1, 0, 0, 1, -59.44769801001053, -5.684341886080802e-14)"><path class="st1" d="M758,754.6c-79.7,0-144.3-64.6-144.3-144.3c0-27.4,7.6-53,20.9-74.8c-56.9,19.3-97.9,73.2-97.9,136.6&#10;&#9;&#9;&#9;c0,79.7,64.6,144.3,144.3,144.3c52.3,0,98.1-27.8,123.4-69.5C789.8,751.9,774.2,754.6,758,754.6z" style="fill: rgb(229, 218, 218); fill-opacity: 0.61;" transform="matrix(0.3704250026323856, 0, 0, 0.3704250026323856, 271.1446177568153, 308.53335563450787)"/></g></g><g transform="matrix(-0.08455902338027951, 0.7855203151702879, -0.7855203151702879, -0.08455902338027951, 1737.4954716653838, -7.782753790922428)"><g transform="matrix(1, 0, 0, 1, -59.44769801001053, -5.684341886080802e-14)"><path class="st1" d="M758,754.6c-79.7,0-144.3-64.6-144.3-144.3c0-27.4,7.6-53,20.9-74.8c-56.9,19.3-97.9,73.2-97.9,136.6&#10;&#9;&#9;&#9;c0,79.7,64.6,144.3,144.3,144.3c52.3,0,98.1-27.8,123.4-69.5C789.8,751.9,774.2,754.6,758,754.6z" style="fill: rgb(229, 218, 218); fill-opacity: 0.61;" transform="matrix(0.3704250026323856, 0, 0, 0.3704250026323856, 271.1446177568153, 308.53335563450787)"/></g></g><g transform="matrix(-0.021905960515141487, -0.3458256125450134, 0.3458256125450134, -0.021905960515141487, 1226.8595581054688, 483.88916015625)"><g transform="matrix(1, 0, 0, 1, -59.44769801001053, -5.684341886080802e-14)"><path class="st1" d="M758,754.6c-79.7,0-144.3-64.6-144.3-144.3c0-27.4,7.6-53,20.9-74.8c-56.9,19.3-97.9,73.2-97.9,136.6&#10;&#9;&#9;&#9;c0,79.7,64.6,144.3,144.3,144.3c52.3,0,98.1-27.8,123.4-69.5C789.8,751.9,774.2,754.6,758,754.6z" style="fill: rgb(229, 218, 218); fill-opacity: 0.61;" transform="matrix(0.3704250026323856, 0, 0, 0.3704250026323856, 271.1446177568153, 308.53335563450787)"/></g></g><g transform="matrix(-0.08455900847911835, 0.7855203151702881, -0.7855203151702881, -0.08455900847911835, 1585.3698120117188, -254.98709106445312)"><g transform="matrix(1, 0, 0, 1, -59.44769801001053, -5.684341886080802e-14)"><path class="st1" d="M758,754.6c-79.7,0-144.3-64.6-144.3-144.3c0-27.4,7.6-53,20.9-74.8c-56.9,19.3-97.9,73.2-97.9,136.6&#10;&#9;&#9;&#9;c0,79.7,64.6,144.3,144.3,144.3c52.3,0,98.1-27.8,123.4-69.5C789.8,751.9,774.2,754.6,758,754.6z" style="fill: rgb(229, 218, 218); fill-opacity: 0.61;" transform="matrix(0.3704250026323856, 0, 0, 0.3704250026323856, 271.1446177568153, 308.53335563450787)"/></g></g><g transform="matrix(-0.037651604531578474, 0.3497686760089812, -0.3497686760089812, -0.037651604531578474, 825.4702541150614, 67.0292450903884)"><g transform="matrix(1, 0, 0, 1, -59.44769801001053, -5.684341886080802e-14)"><path class="st1" d="M758,754.6c-79.7,0-144.3-64.6-144.3-144.3c0-27.4,7.6-53,20.9-74.8c-56.9,19.3-97.9,73.2-97.9,136.6&#10;&#9;&#9;&#9;c0,79.7,64.6,144.3,144.3,144.3c52.3,0,98.1-27.8,123.4-69.5C789.8,751.9,774.2,754.6,758,754.6z" style="fill: rgb(229, 218, 218); fill-opacity: 0.61;" transform="matrix(0.3704250026323856, 0, 0, 0.3704250026323856, 271.1446177568153, 308.53335563450787)"/></g></g><g transform="matrix(-0.04994525015354157, -0.7884769439697267, 0.7884769439697267, -0.04994525015354157, 972.8260698339681, 1180.8888636323406)"><g transform="matrix(1, 0, 0, 1, -59.44769801001053, -5.684341886080802e-14)"><path class="st1" d="M758,754.6c-79.7,0-144.3-64.6-144.3-144.3c0-27.4,7.6-53,20.9-74.8c-56.9,19.3-97.9,73.2-97.9,136.6&#10;&#9;&#9;&#9;c0,79.7,64.6,144.3,144.3,144.3c52.3,0,98.1-27.8,123.4-69.5C789.8,751.9,774.2,754.6,758,754.6z" style="fill: rgb(229, 218, 218); fill-opacity: 0.61;" transform="matrix(0.3704250026323856, 0, 0, 0.3704250026323856, 271.1446177568153, 308.53335563450787)"/></g></g><g transform="matrix(0.2004222422838211, 0, 0, 0.2004222422838211, 486.935546875, -3.571300506591797)"><path d="M 239 626.2000122070312 L 250.60000610351562 662 L 288.20001220703125 662 L 257.79998779296875 684.0999755859375 L 269.3999938964844 719.9000244140625 L 239 697.7999877929688 L 208.60000610351562 719.9000244140625 L 220.1999969482422 684.0999755859375 L 189.8000030517578 662 L 227.39999389648438 662 Z" class="st0" style="fill: rgb(229, 218, 218); fill-opacity: 0.6;" transform="matrix(1, 0, 0, 1, 0, 0)"/></g><g transform="matrix(0.2004222422838211, 0, 0, 0.2004222422838211, 155.21688842773438, 17.55727767944336)"><path d="M 239 626.2000122070312 L 250.60000610351562 662 L 288.20001220703125 662 L 257.79998779296875 684.0999755859375 L 269.3999938964844 719.9000244140625 L 239 697.7999877929688 L 208.60000610351562 719.9000244140625 L 220.1999969482422 684.0999755859375 L 189.8000030517578 662 L 227.39999389648438 662 Z" class="st0" style="fill: rgb(229, 218, 218); fill-opacity: 0.6;" transform="matrix(1, 0, 0, 1, 0, 0)"/></g><g transform="matrix(0.2004222422838211, 0, 0, 0.2004222422838211, 79.15399932861328, 146.4416046142578)"><path d="M 239 626.2000122070312 L 250.60000610351562 662 L 288.20001220703125 662 L 257.79998779296875 684.0999755859375 L 269.3999938964844 719.9000244140625 L 239 697.7999877929688 L 208.60000610351562 719.9000244140625 L 220.1999969482422 684.0999755859375 L 189.8000030517578 662 L 227.39999389648438 662 Z" class="st0" style="fill: rgb(229, 218, 218); fill-opacity: 0.6;" transform="matrix(1, 0, 0, 1, 0, 0)"/></g><g transform="matrix(0.2004222422838211, 0, 0, 0.2004222422838211, 22.106842041015625, 326.0345458984375)"><path d="M 239 626.2000122070312 L 250.60000610351562 662 L 288.20001220703125 662 L 257.79998779296875 684.0999755859375 L 269.3999938964844 719.9000244140625 L 239 697.7999877929688 L 208.60000610351562 719.9000244140625 L 220.1999969482422 684.0999755859375 L 189.8000030517578 662 L 227.39999389648438 662 Z" class="st0" style="fill: rgb(229, 218, 218); fill-opacity: 0.6;" transform="matrix(1, 0, 0, 1, 0, 0)"/></g><g transform="matrix(0.2004222422838211, 0, 0, 0.2004222422838211, 72.8154296875, 651.4146118164062)"><path d="M 239 626.2000122070312 L 250.60000610351562 662 L 288.20001220703125 662 L 257.79998779296875 684.0999755859375 L 269.3999938964844 719.9000244140625 L 239 697.7999877929688 L 208.60000610351562 719.9000244140625 L 220.1999969482422 684.0999755859375 L 189.8000030517578 662 L 227.39999389648438 662 Z" class="st0" style="fill: rgb(229, 218, 218); fill-opacity: 0.6;" transform="matrix(1, 0, 0, 1, 0, 0)"/></g><g transform="matrix(0.2004222422838211, 0, 0, 0.2004222422838211, 442.5655517578125, 786.6375122070312)"><path d="M 239 626.2000122070312 L 250.60000610351562 662 L 288.20001220703125 662 L 257.79998779296875 684.0999755859375 L 269.3999938964844 719.9000244140625 L 239 697.7999877929688 L 208.60000610351562 719.9000244140625 L 220.1999969482422 684.0999755859375 L 189.8000030517578 662 L 227.39999389648438 662 Z" class="st0" style="fill: rgb(229, 218, 218); fill-opacity: 0.6;" transform="matrix(1, 0, 0, 1, 0, 0)"/></g><g transform="matrix(0.2004222422838211, 0, 0, 0.2004222422838211, 510.17694091796875, 590.1417236328125)"><path d="M 239 626.2000122070312 L 250.60000610351562 662 L 288.20001220703125 662 L 257.79998779296875 684.0999755859375 L 269.3999938964844 719.9000244140625 L 239 697.7999877929688 L 208.60000610351562 719.9000244140625 L 220.1999969482422 684.0999755859375 L 189.8000030517578 662 L 227.39999389648438 662 Z" class="st0" style="fill: rgb(229, 218, 218); fill-opacity: 0.6;" transform="matrix(1, 0, 0, 1, 0, 0)"/></g><g transform="matrix(0.2004222422838211, 0, 0, 0.2004222422838211, 1070.0842895507812, 247.85877990722656)"><path d="M 239 626.2000122070312 L 250.60000610351562 662 L 288.20001220703125 662 L 257.79998779296875 684.0999755859375 L 269.3999938964844 719.9000244140625 L 239 697.7999877929688 L 208.60000610351562 719.9000244140625 L 220.1999969482422 684.0999755859375 L 189.8000030517578 662 L 227.39999389648438 662 Z" class="st0" style="fill: rgb(229, 218, 218); fill-opacity: 0.6;" transform="matrix(1, 0, 0, 1, 0, 0)"/></g><g transform="matrix(0.2004222422838211, 0, 0, 0.2004222422838211, 1245.4514770507812, 307.018798828125)"><path d="M 239 626.2000122070312 L 250.60000610351562 662 L 288.20001220703125 662 L 257.79998779296875 684.0999755859375 L 269.3999938964844 719.9000244140625 L 239 697.7999877929688 L 208.60000610351562 719.9000244140625 L 220.1999969482422 684.0999755859375 L 189.8000030517578 662 L 227.39999389648438 662 Z" class="st0" style="fill: rgb(229, 218, 218); fill-opacity: 0.6;" transform="matrix(1, 0, 0, 1, 0, 0)"/></g><g transform="matrix(0.2004222422838211, 0, 0, 0.2004222422838211, 1433.4957885742188, 161.23159790039062)"><path d="M 239 626.2000122070312 L 250.60000610351562 662 L 288.20001220703125 662 L 257.79998779296875 684.0999755859375 L 269.3999938964844 719.9000244140625 L 239 697.7999877929688 L 208.60000610351562 719.9000244140625 L 220.1999969482422 684.0999755859375 L 189.8000030517578 662 L 227.39999389648438 662 Z" class="st0" style="fill: rgb(229, 218, 218); fill-opacity: 0.6;" transform="matrix(1, 0, 0, 1, 0, 0)"/></g><g transform="matrix(0.2004222422838211, 0, 0, 0.2004222422838211, 1268.6929321289062, -12.02273178100586)"><path d="M 239 626.2000122070312 L 250.60000610351562 662 L 288.20001220703125 662 L 257.79998779296875 684.0999755859375 L 269.3999938964844 719.9000244140625 L 239 697.7999877929688 L 208.60000610351562 719.9000244140625 L 220.1999969482422 684.0999755859375 L 189.8000030517578 662 L 227.39999389648438 662 Z" class="st0" style="fill: rgb(229, 218, 218); fill-opacity: 0.6;" transform="matrix(1, 0, 0, 1, 0, 0)"/></g><g transform="matrix(0.2004222422838211, 0, 0, 0.2004222422838211, 1479.9786987304688, -47.941314697265625)"><path d="M 239 626.2000122070312 L 250.60000610351562 662 L 288.20001220703125 662 L 257.79998779296875 684.0999755859375 L 269.3999938964844 719.9000244140625 L 239 697.7999877929688 L 208.60000610351562 719.9000244140625 L 220.1999969482422 684.0999755859375 L 189.8000030517578 662 L 227.39999389648438 662 Z" class="st0" style="fill: rgb(229, 218, 218); fill-opacity: 0.6;" transform="matrix(1, 0, 0, 1, 0, 0)"/></g><g transform="matrix(0.2004222422838211, 0, 0, 0.2004222422838211, 1520.1229858398438, 211.94020080566406)"><path d="M 239 626.2000122070312 L 250.60000610351562 662 L 288.20001220703125 662 L 257.79998779296875 684.0999755859375 L 269.3999938964844 719.9000244140625 L 239 697.7999877929688 L 208.60000610351562 719.9000244140625 L 220.1999969482422 684.0999755859375 L 189.8000030517578 662 L 227.39999389648438 662 Z" class="st0" style="fill: rgb(229, 218, 218); fill-opacity: 0.6;" transform="matrix(1, 0, 0, 1, 0, 0)"/></g><g transform="matrix(0.2004222422838211, 0, 0, 0.2004222422838211, 1553.9287719726562, 526.7559814453125)"><path d="M 239 626.2000122070312 L 250.60000610351562 662 L 288.20001220703125 662 L 257.79998779296875 684.0999755859375 L 269.3999938964844 719.9000244140625 L 239 697.7999877929688 L 208.60000610351562 719.9000244140625 L 220.1999969482422 684.0999755859375 L 189.8000030517578 662 L 227.39999389648438 662 Z" class="st0" style="fill: rgb(229, 218, 218); fill-opacity: 0.6;" transform="matrix(1, 0, 0, 1, 0, 0)"/></g><g transform="matrix(0.2004222422838211, 0, 0, 0.2004222422838211, 1479.9786987304688, 583.8031616210938)"><path d="M 239 626.2000122070312 L 250.60000610351562 662 L 288.20001220703125 662 L 257.79998779296875 684.0999755859375 L 269.3999938964844 719.9000244140625 L 239 697.7999877929688 L 208.60000610351562 719.9000244140625 L 220.1999969482422 684.0999755859375 L 189.8000030517578 662 L 227.39999389648438 662 Z" class="st0" style="fill: rgb(229, 218, 218); fill-opacity: 0.6;" transform="matrix(1, 0, 0, 1, 0, 0)"/></g><g transform="matrix(0.2004222422838211, 0, 0, 0.2004222422838211, 1332.0786743164062, 719.0260620117188)"><path d="M 239 626.2000122070312 L 250.60000610351562 662 L 288.20001220703125 662 L 257.79998779296875 684.0999755859375 L 269.3999938964844 719.9000244140625 L 239 697.7999877929688 L 208.60000610351562 719.9000244140625 L 220.1999969482422 684.0999755859375 L 189.8000030517578 662 L 227.39999389648438 662 Z" class="st0" style="fill: rgb(229, 218, 218); fill-opacity: 0.6;" transform="matrix(1, 0, 0, 1, 0, 0)"/></g><g transform="matrix(0.2004222422838211, 0, 0, 0.2004222422838211, 979.2313842773438, 723.2517700195312)"><path d="M 239 626.2000122070312 L 250.60000610351562 662 L 288.20001220703125 662 L 257.79998779296875 684.0999755859375 L 269.3999938964844 719.9000244140625 L 239 697.7999877929688 L 208.60000610351562 719.9000244140625 L 220.1999969482422 684.0999755859375 L 189.8000030517578 662 L 227.39999389648438 662 Z" class="st0" style="fill: rgb(229, 218, 218); fill-opacity: 0.6;" transform="matrix(1, 0, 0, 1, 0, 0)"/></g><g transform="matrix(0.2004222422838211, 0, 0, 0.2004222422838211, 626.3841552734375, 290.1159362792969)"><path d="M 239 626.2000122070312 L 250.60000610351562 662 L 288.20001220703125 662 L 257.79998779296875 684.0999755859375 L 269.3999938964844 719.9000244140625 L 239 697.7999877929688 L 208.60000610351562 719.9000244140625 L 220.1999969482422 684.0999755859375 L 189.8000030517578 662 L 227.39999389648438 662 Z" class="st0" style="fill: rgb(229, 218, 218); fill-opacity: 0.6;" transform="matrix(1, 0, 0, 1, 0, 0)"/></g><g transform="matrix(0.2004222422838211, 0, 0, 0.2004222422838211, 617.9328002929688, 104.1844482421875)"><path d="M 239 626.2000122070312 L 250.60000610351562 662 L 288.20001220703125 662 L 257.79998779296875 684.0999755859375 L 269.3999938964844 719.9000244140625 L 239 697.7999877929688 L 208.60000610351562 719.9000244140625 L 220.1999969482422 684.0999755859375 L 189.8000030517578 662 L 227.39999389648438 662 Z" class="st0" style="fill: rgb(229, 218, 218); fill-opacity: 0.6;" transform="matrix(1, 0, 0, 1, 0, 0)"/></g><g transform="matrix(0.2004222422838211, 0, 0, 0.2004222422838211, 884.1527709960938, 195.03733825683594)"><path d="M 239 626.2000122070312 L 250.60000610351562 662 L 288.20001220703125 662 L 257.79998779296875 684.0999755859375 L 269.3999938964844 719.9000244140625 L 239 697.7999877929688 L 208.60000610351562 719.9000244140625 L 220.1999969482422 684.0999755859375 L 189.8000030517578 662 L 227.39999389648438 662 Z" class="st0" style="fill: rgb(229, 218, 218); fill-opacity: 0.6;" transform="matrix(1, 0, 0, 1, 0, 0)"/></g><g transform="matrix(0.2004222422838211, 0, 0, 0.2004222422838211, 763.719970703125, 467.59600830078125)"><path d="M 239 626.2000122070312 L 250.60000610351562 662 L 288.20001220703125 662 L 257.79998779296875 684.0999755859375 L 269.3999938964844 719.9000244140625 L 239 697.7999877929688 L 208.60000610351562 719.9000244140625 L 220.1999969482422 684.0999755859375 L 189.8000030517578 662 L 227.39999389648438 662 Z" class="st0" style="fill: rgb(229, 218, 218); fill-opacity: 0.6;" transform="matrix(1, 0, 0, 1, 0, 0)"/></g><g transform="matrix(0.2004222422838211, 0, 0, 0.2004222422838211, 275.6497802734375, 285.8902130126953)"><path d="M 239 626.2000122070312 L 250.60000610351562 662 L 288.20001220703125 662 L 257.79998779296875 684.0999755859375 L 269.3999938964844 719.9000244140625 L 239 697.7999877929688 L 208.60000610351562 719.9000244140625 L 220.1999969482422 684.0999755859375 L 189.8000030517578 662 L 227.39999389648438 662 Z" class="st0" style="fill: rgb(229, 218, 218); fill-opacity: 0.6;" transform="matrix(1, 0, 0, 1, 0, 0)"/></g><g transform="matrix(0.2004222422838211, 0, 0, 0.2004222422838211, 159.44259643554688, 431.67742919921875)"><path d="M 239 626.2000122070312 L 250.60000610351562 662 L 288.20001220703125 662 L 257.79998779296875 684.0999755859375 L 269.3999938964844 719.9000244140625 L 239 697.7999877929688 L 208.60000610351562 719.9000244140625 L 220.1999969482422 684.0999755859375 L 189.8000030517578 662 L 227.39999389648438 662 Z" class="st0" style="fill: rgb(229, 218, 218); fill-opacity: 0.6;" transform="matrix(1, 0, 0, 1, 0, 0)"/></g><g transform="matrix(0.2004222422838211, 0, 0, 0.2004222422838211, 341.14837646484375, 423.2259521484375)"><path d="M 239 626.2000122070312 L 250.60000610351562 662 L 288.20001220703125 662 L 257.79998779296875 684.0999755859375 L 269.3999938964844 719.9000244140625 L 239 697.7999877929688 L 208.60000610351562 719.9000244140625 L 220.1999969482422 684.0999755859375 L 189.8000030517578 662 L 227.39999389648438 662 Z" class="st0" style="fill: rgb(229, 218, 218); fill-opacity: 0.6;" transform="matrix(1, 0, 0, 1, 0, 0)"/></g><g transform="matrix(0.2004222422838211, 0, 0, 0.2004222422838211, 425.6626892089844, 562.674560546875)"><path d="M 239 626.2000122070312 L 250.60000610351562 662 L 288.20001220703125 662 L 257.79998779296875 684.0999755859375 L 269.3999938964844 719.9000244140625 L 239 697.7999877929688 L 208.60000610351562 719.9000244140625 L 220.1999969482422 684.0999755859375 L 189.8000030517578 662 L 227.39999389648438 662 Z" class="st0" style="fill: rgb(229, 218, 218); fill-opacity: 0.6;" transform="matrix(1, 0, 0, 1, 0, 0)"/></g><g transform="matrix(0.2004222422838211, 0, 0, 0.2004222422838211, 224.94119262695312, 799.3146362304688)"><path d="M 239 626.2000122070312 L 250.60000610351562 662 L 288.20001220703125 662 L 257.79998779296875 684.0999755859375 L 269.3999938964844 719.9000244140625 L 239 697.7999877929688 L 208.60000610351562 719.9000244140625 L 220.1999969482422 684.0999755859375 L 189.8000030517578 662 L 227.39999389648438 662 Z" class="st0" style="fill: rgb(229, 218, 218); fill-opacity: 0.6;" transform="matrix(1, 0, 0, 1, 0, 0)"/></g><g transform="matrix(0.2004222422838211, 0, 0, 0.2004222422838211, 884.1527709960938, 359.84027099609375)"><path d="M 239 626.2000122070312 L 250.60000610351562 662 L 288.20001220703125 662 L 257.79998779296875 684.0999755859375 L 269.3999938964844 719.9000244140625 L 239 697.7999877929688 L 208.60000610351562 719.9000244140625 L 220.1999969482422 684.0999755859375 L 189.8000030517578 662 L 227.39999389648438 662 Z" class="st0" style="fill: rgb(229, 218, 218); fill-opacity: 0.6;" transform="matrix(1, 0, 0, 1, 0, 0)"/></g><g transform="matrix(0.2004222422838211, 0, 0, 0.2004222422838211, 920.0713500976562, -22.587020874023438)"><path d="M 239 626.2000122070312 L 250.60000610351562 662 L 288.20001220703125 662 L 257.79998779296875 684.0999755859375 L 269.3999938964844 719.9000244140625 L 239 697.7999877929688 L 208.60000610351562 719.9000244140625 L 220.1999969482422 684.0999755859375 L 189.8000030517578 662 L 227.39999389648438 662 Z" class="st0" style="fill: rgb(229, 218, 218); fill-opacity: 0.6;" transform="matrix(1, 0, 0, 1, 0, 0)"/></g><g transform="matrix(0.2004222422838211, 0, 0, 0.2004222422838211, 617.9328002929688, -31.0384521484375)"><path d="M 239 626.2000122070312 L 250.60000610351562 662 L 288.20001220703125 662 L 257.79998779296875 684.0999755859375 L 269.3999938964844 719.9000244140625 L 239 697.7999877929688 L 208.60000610351562 719.9000244140625 L 220.1999969482422 684.0999755859375 L 189.8000030517578 662 L 227.39999389648438 662 Z" class="st0" style="fill: rgb(229, 218, 218); fill-opacity: 0.6;" transform="matrix(1, 0, 0, 1, 0, 0)"/></g><g transform="matrix(0.2004222422838211, 0, 0, 0.2004222422838211, 123.52401733398438, -39.48988342285156)"><path d="M 239 626.2000122070312 L 250.60000610351562 662 L 288.20001220703125 662 L 257.79998779296875 684.0999755859375 L 269.3999938964844 719.9000244140625 L 239 697.7999877929688 L 208.60000610351562 719.9000244140625 L 220.1999969482422 684.0999755859375 L 189.8000030517578 662 L 227.39999389648438 662 Z" class="st0" style="fill: rgb(229, 218, 218); fill-opacity: 0.6;" transform="matrix(1, 0, 0, 1, 0, 0)"/></g><g transform="matrix(0.2004222422838211, 0, 0, 0.2004222422838211, 1277.1443481445312, 393.64599609375)"><path d="M 239 626.2000122070312 L 250.60000610351562 662 L 288.20001220703125 662 L 257.79998779296875 684.0999755859375 L 269.3999938964844 719.9000244140625 L 239 697.7999877929688 L 208.60000610351562 719.9000244140625 L 220.1999969482422 684.0999755859375 L 189.8000030517578 662 L 227.39999389648438 662 Z" class="st0" style="fill: rgb(229, 218, 218); fill-opacity: 0.6;" transform="matrix(1, 0, 0, 1, 0, 0)"/></g><g transform="matrix(0.2004222422838211, 0, 0, 0.2004222422838211, 681.3184814453125, 203.48876953125)"><path d="M 239 626.2000122070312 L 250.60000610351562 662 L 288.20001220703125 662 L 257.79998779296875 684.0999755859375 L 269.3999938964844 719.9000244140625 L 239 697.7999877929688 L 208.60000610351562 719.9000244140625 L 220.1999969482422 684.0999755859375 L 189.8000030517578 662 L 227.39999389648438 662 Z" class="st0" style="fill: rgb(229, 218, 218); fill-opacity: 0.6;" transform="matrix(1, 0, 0, 1, 0, 0)"/></g><g transform="matrix(0.2004222422838211, 0, 0, 0.2004222422838211, 1165.1629028320312, 357.7273864746094)"><path d="M 239 626.2000122070312 L 250.60000610351562 662 L 288.20001220703125 662 L 257.79998779296875 684.0999755859375 L 269.3999938964844 719.9000244140625 L 239 697.7999877929688 L 208.60000610351562 719.9000244140625 L 220.1999969482422 684.0999755859375 L 189.8000030517578 662 L 227.39999389648438 662 Z" class="st0" style="fill: rgb(229, 218, 218); fill-opacity: 0.6;" transform="matrix(1, 0, 0, 1, 0, 0)"/></g><g transform="matrix(0.2004222422838211, 0, 0, 0.2004222422838211, 611.5941772460938, 676.7689208984375)"><path d="M 239 626.2000122070312 L 250.60000610351562 662 L 288.20001220703125 662 L 257.79998779296875 684.0999755859375 L 269.3999938964844 719.9000244140625 L 239 697.7999877929688 L 208.60000610351562 719.9000244140625 L 220.1999969482422 684.0999755859375 L 189.8000030517578 662 L 227.39999389648438 662 Z" class="st0" style="fill: rgb(229, 218, 218); fill-opacity: 0.6;" transform="matrix(1, 0, 0, 1, 0, 0)"/></g><g transform="matrix(0.3507271371825146, 0, 0, 0.3507271371825146, 401.36046667117444, 84.01353342888034)"><path d="M 239 626.2000122070312 L 250.60000610351562 662 L 288.20001220703125 662 L 257.79998779296875 684.0999755859375 L 269.3999938964844 719.9000244140625 L 239 697.7999877929688 L 208.60000610351562 719.9000244140625 L 220.1999969482422 684.0999755859375 L 189.8000030517578 662 L 227.39999389648438 662 Z" class="st0" style="fill: rgb(229, 218, 218); fill-opacity: 0.6;" transform="matrix(1, 0, 0, 1, 0, 0)"/></g><g transform="matrix(0.35072714090347284, 0, 0, 0.35072714090347284, 939.0828472897426, 224.8717795061703)"><path d="M 239 626.2000122070312 L 250.60000610351562 662 L 288.20001220703125 662 L 257.79998779296875 684.0999755859375 L 269.3999938964844 719.9000244140625 L 239 697.7999877929688 L 208.60000610351562 719.9000244140625 L 220.1999969482422 684.0999755859375 L 189.8000030517578 662 L 227.39999389648438 662 Z" class="st0" style="fill: rgb(229, 218, 218); fill-opacity: 0.6;" transform="matrix(1, 0, 0, 1, 0, 0)"/></g><g transform="matrix(0.35072714090347284, 0, 0, 0.35072714090347284, -13.81601887571901, 442.4961325328722)"><path d="M 239 626.2000122070312 L 250.60000610351562 662 L 288.20001220703125 662 L 257.79998779296875 684.0999755859375 L 269.3999938964844 719.9000244140625 L 239 697.7999877929688 L 208.60000610351562 719.9000244140625 L 220.1999969482422 684.0999755859375 L 189.8000030517578 662 L 227.39999389648438 662 Z" class="st0" style="fill: rgb(229, 218, 218); fill-opacity: 0.6;" transform="matrix(1, 0, 0, 1, 0, 0)"/></g><g transform="matrix(0.35072714090347284, 0, 0, 0.35072714090347284, 603.1384576659989, 647.4433387813197)"><path d="M 239 626.2000122070312 L 250.60000610351562 662 L 288.20001220703125 662 L 257.79998779296875 684.0999755859375 L 269.3999938964844 719.9000244140625 L 239 697.7999877929688 L 208.60000610351562 719.9000244140625 L 220.1999969482422 684.0999755859375 L 189.8000030517578 662 L 227.39999389648438 662 Z" class="st0" style="fill: rgb(229, 218, 218); fill-opacity: 0.6;" transform="matrix(1, 0, 0, 1, 0, 0)"/></g><g transform="matrix(0.35072714090347284, 0, 0, 0.35072714090347284, 1127.1271911671843, -134.31404587770663)"><path d="M 239 626.2000122070312 L 250.60000610351562 662 L 288.20001220703125 662 L 257.79998779296875 684.0999755859375 L 269.3999938964844 719.9000244140625 L 239 697.7999877929688 L 208.60000610351562 719.9000244140625 L 220.1999969482422 684.0999755859375 L 189.8000030517578 662 L 227.39999389648438 662 Z" class="st0" style="fill: rgb(229, 218, 218); fill-opacity: 0.6;" transform="matrix(1, 0, 0, 1, 0, 0)"/></g><g transform="matrix(0.35072714090347284, 0, 0, 0.35072714090347284, 1346.8644080887025, -174.4583392688345)"><path d="M 239 626.2000122070312 L 250.60000610351562 662 L 288.20001220703125 662 L 257.79998779296875 684.0999755859375 L 269.3999938964844 719.9000244140625 L 239 697.7999877929688 L 208.60000610351562 719.9000244140625 L 220.1999969482422 684.0999755859375 L 189.8000030517578 662 L 227.39999389648438 662 Z" class="st0" style="fill: rgb(229, 218, 218); fill-opacity: 0.6;" transform="matrix(1, 0, 0, 1, 0, 0)"/></g><g transform="matrix(0.35072714090347284, 0, 0, 0.35072714090347284, 575.6713063131142, -189.24834858347606)"><path d="M 239 626.2000122070312 L 250.60000610351562 662 L 288.20001220703125 662 L 257.79998779296875 684.0999755859375 L 269.3999938964844 719.9000244140625 L 239 697.7999877929688 L 208.60000610351562 719.9000244140625 L 220.1999969482422 684.0999755859375 L 189.8000030517578 662 L 227.39999389648438 662 Z" class="st0" style="fill: rgb(229, 218, 218); fill-opacity: 0.6;" transform="matrix(1, 0, 0, 1, 0, 0)"/></g><g transform="matrix(0.35072714090347284, 0, 0, 0.35072714090347284, 1258.1243745424804, 383.33611423435127)"><path d="M 239 626.2000122070312 L 250.60000610351562 662 L 288.20001220703125 662 L 257.79998779296875 684.0999755859375 L 269.3999938964844 719.9000244140625 L 239 697.7999877929688 L 208.60000610351562 719.9000244140625 L 220.1999969482422 684.0999755859375 L 189.8000030517578 662 L 227.39999389648438 662 Z" class="st0" style="fill: rgb(229, 218, 218); fill-opacity: 0.6;" transform="matrix(1, 0, 0, 1, 0, 0)"/></g><g transform="matrix(0.35072714090347284, 0, 0, 0.35072714090347284, 975.0014298281303, 381.2232564379755)"><path d="M 239 626.2000122070312 L 250.60000610351562 662 L 288.20001220703125 662 L 257.79998779296875 684.0999755859375 L 269.3999938964844 719.9000244140625 L 239 697.7999877929688 L 208.60000610351562 719.9000244140625 L 220.1999969482422 684.0999755859375 L 189.8000030517578 662 L 227.39999389648438 662 Z" class="st0" style="fill: rgb(229, 218, 218); fill-opacity: 0.6;" transform="matrix(1, 0, 0, 1, 0, 0)"/></g><g transform="matrix(0.35072714090347284, 0, 0, 0.35072714090347284, 833.4399574709553, 518.559013202399)"><path d="M 239 626.2000122070312 L 250.60000610351562 662 L 288.20001220703125 662 L 257.79998779296875 684.0999755859375 L 269.3999938964844 719.9000244140625 L 239 697.7999877929688 L 208.60000610351562 719.9000244140625 L 220.1999969482422 684.0999755859375 L 189.8000030517578 662 L 227.39999389648438 662 Z" class="st0" style="fill: rgb(229, 218, 218); fill-opacity: 0.6;" transform="matrix(1, 0, 0, 1, 0, 0)"/></g><g transform="matrix(0.35072714090347284, 0, 0, 0.35072714090347284, 239.72691668937046, 277.693224415564)"><path d="M 239 626.2000122070312 L 250.60000610351562 662 L 288.20001220703125 662 L 257.79998779296875 684.0999755859375 L 269.3999938964844 719.9000244140625 L 239 697.7999877929688 L 208.60000610351562 719.9000244140625 L 220.1999969482422 684.0999755859375 L 189.8000030517578 662 L 227.39999389648438 662 Z" class="st0" style="fill: rgb(229, 218, 218); fill-opacity: 0.6;" transform="matrix(1, 0, 0, 1, 0, 0)"/></g><g transform="matrix(0.35072714090347284, 0, 0, 0.35072714090347284, 227.04976991111607, -176.57120180522156)"><path d="M 239 626.2000122070312 L 250.60000610351562 662 L 288.20001220703125 662 L 257.79998779296875 684.0999755859375 L 269.3999938964844 719.9000244140625 L 239 697.7999877929688 L 208.60000610351562 719.9000244140625 L 220.1999969482422 684.0999755859375 L 189.8000030517578 662 L 227.39999389648438 662 Z" class="st0" style="fill: rgb(229, 218, 218); fill-opacity: 0.6;" transform="matrix(1, 0, 0, 1, 0, 0)"/></g><g transform="matrix(0.35072714090347284, 0, 0, 0.35072714090347284, 1029.9357325338997, 13.58599986859565)"><path d="M 239 626.2000122070312 L 250.60000610351562 662 L 288.20001220703125 662 L 257.79998779296875 684.0999755859375 L 269.3999938964844 719.9000244140625 L 239 697.7999877929688 L 208.60000610351562 719.9000244140625 L 220.1999969482422 684.0999755859375 L 189.8000030517578 662 L 227.39999389648438 662 Z" class="st0" style="fill: rgb(229, 218, 218); fill-opacity: 0.6;" transform="matrix(1, 0, 0, 1, 0, 0)"/></g><g transform="matrix(0.35072714090347284, 0, 0, 0.35072714090347284, 1348.9772597866377, 102.32602731637698)"><path d="M 239 626.2000122070312 L 250.60000610351562 662 L 288.20001220703125 662 L 257.79998779296875 684.0999755859375 L 269.3999938964844 719.9000244140625 L 239 697.7999877929688 L 208.60000610351562 719.9000244140625 L 220.1999969482422 684.0999755859375 L 189.8000030517578 662 L 227.39999389648438 662 Z" class="st0" style="fill: rgb(229, 218, 218); fill-opacity: 0.6;" transform="matrix(1, 0, 0, 1, 0, 0)"/></g><g transform="matrix(0.35072714090347284, 0, 0, 0.35072714090347284, 1304.607246062747, 226.98463730254605)"><path d="M 239 626.2000122070312 L 250.60000610351562 662 L 288.20001220703125 662 L 257.79998779296875 684.0999755859375 L 269.3999938964844 719.9000244140625 L 239 697.7999877929688 L 208.60000610351562 719.9000244140625 L 220.1999969482422 684.0999755859375 L 189.8000030517578 662 L 227.39999389648438 662 Z" class="st0" style="fill: rgb(229, 218, 218); fill-opacity: 0.6;" transform="matrix(1, 0, 0, 1, 0, 0)"/></g><g transform="matrix(-0.08455903083086012, 0.785520315170288, -0.785520315170288, -0.08455903083086012, 1099.4127162897373, 628.5157008493898)"><g transform="matrix(1, 0, 0, 1, -59.44769801001053, -5.684341886080802e-14)"><path class="st1" d="M758,754.6c-79.7,0-144.3-64.6-144.3-144.3c0-27.4,7.6-53,20.9-74.8c-56.9,19.3-97.9,73.2-97.9,136.6&#10;&#9;&#9;&#9;c0,79.7,64.6,144.3,144.3,144.3c52.3,0,98.1-27.8,123.4-69.5C789.8,751.9,774.2,754.6,758,754.6z" style="fill: rgb(229, 218, 218); fill-opacity: 0.61;" transform="matrix(0.3704250026323856, 0, 0, 0.3704250026323856, 271.1446177568153, 308.53335563450787)"/></g></g><g transform="matrix(-0.08455902338027951, 0.7855203151702879, -0.7855203151702879, -0.08455902338027951, 482.4582718733179, 203.83131103849598)"><g transform="matrix(1, 0, 0, 1, -59.44769801001053, -5.684341886080802e-14)"><path class="st1" d="M758,754.6c-79.7,0-144.3-64.6-144.3-144.3c0-27.4,7.6-53,20.9-74.8c-56.9,19.3-97.9,73.2-97.9,136.6&#10;&#9;&#9;&#9;c0,79.7,64.6,144.3,144.3,144.3c52.3,0,98.1-27.8,123.4-69.5C789.8,751.9,774.2,754.6,758,754.6z" style="fill: rgb(229, 218, 218); fill-opacity: 0.61;" transform="matrix(0.3704250026323856, 0, 0, 0.3704250026323856, 271.1446177568153, 308.53335563450787)"/></g></g><g transform="matrix(-0.08455902338027951, 0.7855203151702879, -0.7855203151702879, -0.08455902338027951, 2077.665908137006, 112.97842579433888)"><g transform="matrix(1, 0, 0, 1, -59.44769801001053, -5.684341886080802e-14)"><path class="st1" d="M758,754.6c-79.7,0-144.3-64.6-144.3-144.3c0-27.4,7.6-53,20.9-74.8c-56.9,19.3-97.9,73.2-97.9,136.6&#10;&#9;&#9;&#9;c0,79.7,64.6,144.3,144.3,144.3c52.3,0,98.1-27.8,123.4-69.5C789.8,751.9,774.2,754.6,758,754.6z" style="fill: rgb(229, 218, 218); fill-opacity: 0.61;" transform="matrix(0.3704250026323856, 0, 0, 0.3704250026323856, 271.1446177568153, 308.53335563450787)"/></g></g><g transform="matrix(-0.08455902338027951, 0.7855203151702879, -0.7855203151702879, -0.08455902338027951, 2081.891623729758, 486.95425575284594)"><g transform="matrix(1, 0, 0, 1, -59.44769801001053, -5.684341886080802e-14)"><path class="st1" d="M758,754.6c-79.7,0-144.3-64.6-144.3-144.3c0-27.4,7.6-53,20.9-74.8c-56.9,19.3-97.9,73.2-97.9,136.6&#10;&#9;&#9;&#9;c0,79.7,64.6,144.3,144.3,144.3c52.3,0,98.1-27.8,123.4-69.5C789.8,751.9,774.2,754.6,758,754.6z" style="fill: rgb(229, 218, 218); fill-opacity: 0.61;" transform="matrix(0.3704250026323856, 0, 0, 0.3704250026323856, 271.1446177568153, 308.53335563450787)"/></g></g><g transform="matrix(0.05660888180136682, -0.5258741378784181, 0.5258741378784181, 0.05660888180136682, 271.9456685782841, 655.8366868699745)"><g transform="matrix(1, 0, 0, 1, -59.44769801001053, -5.684341886080802e-14)"><path class="st1" d="M758,754.6c-79.7,0-144.3-64.6-144.3-144.3c0-27.4,7.6-53,20.9-74.8c-56.9,19.3-97.9,73.2-97.9,136.6&#10;&#9;&#9;&#9;c0,79.7,64.6,144.3,144.3,144.3c52.3,0,98.1-27.8,123.4-69.5C789.8,751.9,774.2,754.6,758,754.6z" style="fill: rgb(229, 218, 218); fill-opacity: 0.61;" transform="matrix(0.3704250026323856, 0, 0, 0.3704250026323856, 271.1446177568153, 308.53335563450787)"/></g></g></svg>